<svg width="47px" height="39px" viewBox="0 0 47 39" version="1.1" xmlns="http://www.w3.org/2000/svg" xmlns:xlink="http://www.w3.org/1999/xlink">
    <defs>
        <polygon id="path-1" points="0 0.4575 46.8883246 0.4575 46.8883246 38.749375 0 38.749375"></polygon>
    </defs>
    <g id="Page-1" stroke="none" stroke-width="1" fill="none" fill-rule="evenodd">
        <g id="About" transform="translate(-937.000000, -4424.000000)">
            <g id="Group-6" transform="translate(937.000000, 4423.000000)">
                <path d="M11.6769359,33.144375 C11.6769359,34.044375 10.933848,34.769375 10.0301933,34.734375 C9.21491261,34.703125 8.54028337,34.025625 8.50916578,33.206875 C8.47431409,32.299375 9.19624206,31.553125 10.0924285,31.553125 C10.967455,31.553125 11.6769359,32.265625 11.6769359,33.144375" id="Fill-1" fill="#24D6DE"></path>
                <g id="Group-5" transform="translate(0.000000, 0.793000)">
                    <mask id="mask-2" fill="white">
                        <use xlink:href="#path-1"></use>
                    </mask>
                    <g id="Clip-4"></g>
                    <path d="M45.938268,23.766875 C45.938268,22.985625 45.6967956,22.259375 45.2860434,21.658125 C46.2668697,20.974375 46.9054025,19.830625 46.8883246,18.540625 C46.8618379,16.486875 45.1453919,14.858125 43.1003443,14.858125 L33.4016155,14.858125 L34.0202331,13.464375 C34.9251324,11.426875 35.3856727,9.263125 35.3906515,7.031875 C35.3906515,7.031875 35.396875,4.308125 35.396875,4.293125 C35.396875,2.178125 33.6829184,0.456875 31.5768803,0.456875 C30.0110434,0.456875 28.6207097,1.398125 28.0332097,2.856875 C28.007071,2.920625 27.1183528,5.550625 27.1183528,5.550625 C26.3167638,7.889375 24.8953125,9.964375 23.0058528,11.551875 L18.4738877,15.359375 L15.8537871,15.359375 L15.8537871,14.158125 C15.8537871,12.894375 14.8331303,11.869375 13.5747352,11.869375 L2.27905191,11.869375 C1.02065678,11.869375 0,12.894375 0,14.158125 L0,36.461875 C0,37.725625 1.02065678,38.749375 2.27905191,38.749375 L13.5747352,38.749375 C14.8331303,38.749375 15.8537871,37.725625 15.8537871,36.461875 L15.8537871,34.669375 L17.2839513,34.669375 L18.7041578,35.359375 C22.0636123,36.990625 25.8126589,37.851875 29.5442797,37.851875 L40.2462394,37.851875 C42.2589248,37.851875 43.9629237,36.274375 44.0338718,34.254375 C44.0637447,33.421875 43.8197828,32.645625 43.3841367,32.010625 C44.3525159,31.336875 44.9873146,30.213125 44.9873146,28.943125 C44.9873146,28.161875 44.7458422,27.435625 44.33509,26.835625 C45.3034693,26.160625 45.938268,25.036875 45.938268,23.766875 L45.938268,23.766875 Z M13.5747352,36.461875 L2.27905191,36.461875 L2.27905191,14.158125 L13.5747352,14.158125 L13.5759799,36.461875 L13.5747352,36.461875 Z M43.1725371,20.035625 L41.5905191,20.035625 C40.9831038,20.035625 40.4528602,20.494375 40.4142744,21.103125 C40.3707097,21.769375 40.8959746,22.323125 41.5506886,22.323125 L42.1792638,22.323125 C42.9273305,22.323125 43.5820445,22.879375 43.6529926,23.628125 C43.7338983,24.486875 43.0605138,25.210625 42.2215837,25.210625 L40.6395657,25.210625 C40.0321504,25.210625 39.5031515,25.670625 39.463321,26.279375 C39.4197564,26.945625 39.9450212,27.499375 40.6009799,27.499375 L41.2295551,27.499375 C41.9776218,27.499375 42.6323358,28.056875 42.7020392,28.804375 C42.7829449,29.663125 42.1095604,30.388125 41.2706303,30.388125 L39.6873676,30.388125 C39.081197,30.388125 38.5509534,30.848125 38.5123676,31.456875 C38.4700477,32.123125 38.9953125,32.675625 39.6500265,32.675625 L40.277357,32.675625 C41.0254237,32.675625 41.6801377,33.231875 41.7510858,33.980625 C41.8319915,34.838125 41.1598517,35.563125 40.3209216,35.563125 L29.5442797,35.563125 C26.1537076,35.563125 22.7481992,34.780625 19.6961864,33.298125 L18.0407309,32.495625 C17.8863877,32.420625 17.7171081,32.380625 17.545339,32.380625 L15.8537871,32.380625 L15.8537871,17.648125 L18.8871292,17.648125 C19.1547405,17.648125 19.4136388,17.553125 19.6190148,17.381875 L24.4683792,13.306875 C26.6752383,11.453125 28.3369174,9.028125 29.274179,6.295625 C29.274179,6.295625 29.9351165,4.360625 30.1317797,3.786875 C30.1853019,3.629375 30.25625,3.476875 30.357071,3.345625 C30.6445975,2.971875 31.0889566,2.745625 31.5768803,2.745625 C32.4270127,2.745625 33.1178231,3.439375 33.1178231,4.293125 C33.1178231,4.308125 33.1115996,7.026875 33.1115996,7.026875 C33.1078655,8.936875 32.7132945,10.788125 31.939089,12.533125 L30.6109905,15.521875 C30.4952331,15.784375 30.4852754,16.065625 30.562447,16.320625 C30.5699153,16.343125 30.8151218,17.146875 31.6565413,17.146875 L43.1725371,17.146875 C43.9654131,17.146875 44.6101695,17.794375 44.6101695,18.590625 C44.6101695,19.386875 43.9654131,20.035625 43.1725371,20.035625 L43.1725371,20.035625 Z" id="Fill-3" fill="#24D6DE" mask="url(#mask-2)"></path>
                </g>
            </g>
        </g>
    </g>
</svg>