<svg width="162px" height="38px" viewBox="0 0 162 38" version="1.1" xmlns="http://www.w3.org/2000/svg" xmlns:xlink="http://www.w3.org/1999/xlink">
    <defs>
        <polygon id="path-1" points="0.359322353 0.382596667 20.4257224 0.382596667 20.4257224 22.1666667 0.359322353 22.1666667"></polygon>
        <polygon id="path-3" points="0 0.584566667 29.1846494 0.584566667 29.1846494 37.3666667 0 37.3666667"></polygon>
    </defs>
    <g id="Page-1" stroke="none" stroke-width="1" fill="none" fill-rule="evenodd" opacity="0.601678757">
        <g id="Homepage-V2" transform="translate(0.000000, -4533.000000)">
            <g id="Group-27-Copy-4" transform="translate(0.000000, 4533.000000)">
                <path d="M9.65062588,25.1266767 C10.1398024,25.3090767 10.3882024,25.8524767 10.2058729,26.3401433 C10.0222729,26.82781 9.47782588,27.07481 8.98864941,26.8930433 C8.49947294,26.7106433 8.25107294,26.1678767 8.43403765,25.6795767 C8.61700235,25.1925433 9.16144941,24.94491 9.65062588,25.1266767" id="Fill-1" fill="#FEFEFE"></path>
                <path d="M13.5672141,28.17643 C14.0563906,28.3581967 14.3047906,28.90223 14.1224612,29.3892633 C13.9388612,29.8775633 13.3944141,30.1245633 12.9052376,29.9421633 C12.4160612,29.7597633 12.1676612,29.2169967 12.3506259,28.72933 C12.5335906,28.2416633 13.0780376,27.99403 13.5672141,28.17643" id="Fill-3" fill="#FEFEFE"></path>
                <path d="M10.8870353,27.58762 C11.3762118,27.77002 11.6246118,28.31342 11.4416471,28.8010867 C11.2586824,29.2887533 10.7142353,29.5357533 10.2250588,29.3539867 C9.73588235,29.1715867 9.48748235,28.62882 9.66981176,28.14052 C9.85341176,27.6534867 10.3978588,27.4058533 10.8870353,27.58762" id="Fill-5" fill="#FEFEFE"></path>
                <path d="M12.5013812,25.47178 C12.9905576,25.6535467 13.2389576,26.19758 13.0559929,26.6846133 C12.8730282,27.17228 12.3285812,27.4199133 11.8394047,27.2375133 C11.3502282,27.0551133 11.1018282,26.5123467 11.2841576,26.02468 C11.4677576,25.5370133 12.0122047,25.28938 12.5013812,25.47178" id="Fill-7" fill="#FEFEFE"></path>
                <path d="M64.53,33.50783 L64.53,37.02093 L64.3641882,37.0487967 C63.4106118,37.2121967 62.4570353,37.2938967 61.5320471,37.2938967 C59.4590824,37.2938967 57.8238353,36.7238967 56.6682353,35.6003633 C55.5113647,34.4742967 54.9376941,32.8003967 54.9656471,30.6242633 L55.0056706,19.4262967 L51.1538824,19.4262967 L51.1538824,15.9967967 L55.0075765,15.9967967 L55.0476,8.88066333 L58.9749882,8.88066333 L58.9349647,15.9967967 L64.4899765,15.9967967 L64.4899765,19.4262967 L58.9311529,19.4262967 L58.8530118,29.9408967 C58.8530118,32.4995633 59.9806588,33.7427967 62.3032941,33.7427967 C62.7530824,33.7427967 63.4245882,33.6756633 64.3000235,33.54393 L64.53,33.50783 Z" id="Fill-9" fill="#FEFEFE"></path>
                <path d="M86.2090941,24.2799733 L86.2090941,37.01124 L82.2810706,37.01124 L82.2810706,24.72394 C82.2810706,23.08804 81.8160353,21.7536067 80.8942235,20.7573733 C79.9787647,19.76684 78.7539176,19.2646067 77.2501765,19.2646067 C75.6930706,19.2646067 74.3919882,19.80294 73.3812353,20.8606067 C72.3952588,21.9201733 71.8959176,23.23624 71.8959176,24.7663733 L71.8959176,37.01124 L68.0079176,37.01124 L68.0079176,5.20270667 L71.8959176,5.20270667 L71.8959176,18.3595733 C72.4352824,17.64074 73.1671412,17.03084 74.0743412,16.54634 C75.2077059,15.9389733 76.5208588,15.6318067 77.9801294,15.6318067 C80.3504118,15.6318067 82.3350706,16.4272733 83.8807412,17.9973067 C85.4257765,19.5933067 86.2090941,21.7054733 86.2090941,24.2799733" id="Fill-11" fill="#FEFEFE"></path>
                <path d="M101.811664,33.50783 L101.811664,37.02093 L101.645852,37.0487967 C100.692275,37.2121967 99.7406047,37.2938967 98.8137106,37.2938967 C96.7426518,37.2938967 95.1054988,36.7238967 93.9505341,35.6003633 C92.7936635,34.4742967 92.2193576,32.8003967 92.2473106,30.6242633 L92.2873341,19.4262967 L88.4355459,19.4262967 L88.4355459,15.9967967 L92.2898753,15.9967967 L92.3292635,8.88066333 L96.2572871,8.88066333 L96.2166282,15.9967967 L101.772275,15.9967967 L101.772275,19.4262967 L96.2147224,19.4262967 L96.1346753,29.9408967 C96.1346753,32.4995633 97.2648635,33.7427967 99.5849576,33.7427967 C100.034746,33.7427967 100.706887,33.6756633 101.582322,33.54393 L101.811664,33.50783 Z" id="Fill-13" fill="#FEFEFE"></path>
                <path d="M146.990732,29.64038 L146.95452,29.85128 C146.568896,32.1832133 145.507955,34.0458467 143.80092,35.3910467 C142.095791,36.7356133 139.952944,37.41518 137.432732,37.41518 C134.416355,37.41518 131.899955,36.43098 129.951508,34.4860133 C128.027838,32.5714467 127.052661,29.88548 127.052661,26.5041133 C127.052661,23.14998 128.027838,20.4779467 129.951508,18.56148 C131.899955,16.61778 134.416355,15.63168 137.432732,15.63168 C139.955485,15.63168 142.097696,16.3549467 143.804732,17.7818467 C145.591814,19.1783467 146.64132,21.1157133 146.917038,23.5312467 L146.939273,23.7339133 L143.137673,24.05058 L143.112896,23.8593133 C142.931202,22.3830133 142.313696,21.1955133 141.276261,20.33038 C140.23692,19.46208 138.943461,19.02318 137.432732,19.02318 C135.499532,19.02318 133.934802,19.6926133 132.777296,21.01628 C131.612167,22.3469133 131.021979,24.1918133 131.021979,26.5041133 C131.021979,28.8151467 131.620426,30.6600467 132.796991,31.9913133 C133.968473,33.31498 135.527485,33.98568 137.432732,33.98568 C139.000002,33.98568 140.301085,33.5778133 141.300402,32.7766467 C142.297814,31.9761133 142.921673,30.86208 143.155461,29.4630467 L143.18532,29.2800133 L146.990732,29.64038 Z" id="Fill-15" fill="#FEFEFE"></path>
                <path d="M161.822118,33.50783 L161.822118,37.02093 L161.656306,37.0487967 C160.702729,37.2121967 159.749153,37.2938967 158.823529,37.2938967 C156.7512,37.2938967 155.115953,36.7238967 153.960988,35.6003633 C152.803482,34.4742967 152.229812,32.8003967 152.257765,30.6242633 L152.297788,19.4262967 L148.446,19.4262967 L148.446,15.9967967 L152.299694,15.9967967 L152.339718,8.88066333 L156.267741,8.88066333 L156.227082,15.9967967 L161.782729,15.9967967 L161.782729,19.4262967 L156.225176,19.4262967 L156.145129,29.9408967 C156.145129,32.4995633 157.272776,33.7427967 159.595412,33.7427967 C160.0452,33.7427967 160.716706,33.6756633 161.592141,33.54393 L161.822118,33.50783 Z" id="Fill-17" fill="#FEFEFE"></path>
                <path d="M45.1953953,28.5240033 C45.1953953,30.34547 44.7055835,31.73247 43.7386659,32.6451033 C42.7666659,33.5615367 41.4160306,34.0264033 39.7185247,34.0264033 C37.3164776,34.0264033 36.1488071,33.12517 36.1488071,31.2739367 C36.1488071,29.41257 37.5597953,28.4087367 40.4624541,28.1991033 L45.1953953,27.88877 L45.1953953,28.5240033 Z M46.9786659,17.7738033 C45.5791129,16.3532367 43.5607835,15.63187 40.9757718,15.63187 C38.5273482,15.63187 36.5287129,16.3868033 35.0357718,17.87387 C33.5593482,19.3476367 32.8052541,21.0614367 32.7906424,22.9690367 L36.71676,23.29647 L36.71676,23.19007 C36.71676,22.00827 37.0979365,21.0215367 37.8539365,20.25647 C38.6093012,19.4914033 39.6727835,19.10317 41.0177012,19.10317 C43.8021953,19.10317 45.1560071,20.6770033 45.1560071,23.91777 L45.1560071,24.69867 L39.9929718,25.0109033 C34.8356541,25.2864033 32.2214188,27.4207367 32.2214188,31.35627 C32.2214188,33.2404367 32.8649718,34.7408033 34.1361953,35.8111367 C35.3972541,36.87577 37.0979365,37.41537 39.1931365,37.41537 C41.5977247,37.41537 43.6001718,36.5743033 45.1560071,34.91497 L45.1560071,37.01067 L49.0833953,37.01067 L49.0833953,23.8354367 C49.0833953,21.23497 48.3756776,19.1950033 46.9786659,17.7738033 L46.9786659,17.7738033 Z" id="Fill-19" fill="#FEFEFE"></path>
                <g id="Group-23" transform="translate(103.552941, 15.248830)">
                    <mask id="mask-2" fill="white">
                        <use xlink:href="#path-1"></use>
                    </mask>
                    <g id="Clip-22"></g>
                    <path d="M6.29233412,5.37896333 C7.40981647,4.34029667 8.89259294,3.81399667 10.6955576,3.81399667 C12.5226635,3.81399667 13.9539812,4.34409667 14.9507576,5.38909667 C15.9144988,6.40053 16.4456047,7.80146333 16.5300988,9.55959667 L4.46332235,9.55959667 C4.59927529,7.78183 5.21487529,6.37456333 6.29233412,5.37896333 L6.29233412,5.37896333 Z M16.3846165,15.0670633 L16.3439576,15.2006967 C16.0085224,16.3064967 15.3528988,17.18113 14.3993224,17.79863 C13.4355812,18.4205633 12.2050165,18.73723 10.7374871,18.73723 C8.93452235,18.73723 7.44539294,18.1773633 6.31393412,17.0753633 C5.22249882,16.0132633 4.60118118,14.5711633 4.46332235,12.7889633 L20.4257224,12.7889633 L20.4257224,10.6894633 C20.4257224,7.55256333 19.5483812,5.03189667 17.8197459,3.19713 C16.1101694,1.32943 13.7278165,0.382596667 10.7374871,0.382596667 C7.72301647,0.382596667 5.20471059,1.36933 3.25626353,3.31239667 C1.33259294,5.22949667 0.359322353,7.90089667 0.359322353,11.25503 C0.359322353,14.60853 1.33259294,17.2944967 3.25626353,19.2375633 C5.20471059,21.1818967 7.74906353,22.16673 10.8175341,22.16673 C13.2297459,22.16673 15.3027106,21.5409967 16.9792518,20.3072633 C18.6869224,19.01843 19.7764518,17.4021633 20.2179812,15.50533 L20.2452988,15.3887967 L16.3846165,15.0670633 Z" id="Fill-21" fill="#FEFEFE" mask="url(#mask-2)"></path>
                </g>
                <g id="Group-26" transform="translate(0.000000, 0.048830)">
                    <mask id="mask-4" fill="white">
                        <use xlink:href="#path-3"></use>
                    </mask>
                    <g id="Clip-25"></g>
                    <path d="M29.1846494,26.1942233 L29.1465318,26.4070233 C28.5728612,29.7567233 26.9916141,32.4509233 24.4491671,34.4155233 C21.9111671,36.3744233 18.7867906,37.3668567 15.1630729,37.3668567 C10.7217318,37.3668567 7.04592,35.9456567 4.23537882,33.1444233 C1.42547294,30.3444567 -0.000127058824,26.47479 -0.000127058824,21.6443567 C-0.000127058824,17.1654233 1.21519059,13.51109 3.61596706,10.76939 C3.65217882,10.65159 3.53973176,10.60979 3.23987294,10.5154233 C2.38667294,10.24879 1.65544941,9.78899 1.04112,9.13349 C0.813684706,8.89219 0.901355294,8.71612333 1.09766118,8.54702333 C1.77679059,7.94915667 2.58424941,7.70215667 3.47810824,7.69392333 C3.62994353,7.69392333 3.78177882,7.68379 3.96347294,7.62235667 C2.20497882,6.69579 1.26093176,5.22899 0.883567059,3.28212333 C2.85615529,3.04525667 4.23728471,3.95219 5.39860235,5.49182333 C5.30521412,4.60135667 5.16862588,3.81855667 5.15274353,3.03385667 C5.13686118,2.22002333 5.36239059,1.29599 5.88015529,0.584123333 C7.40549647,1.74439 7.81144941,3.41575667 8.07890824,5.19352333 C8.14942588,5.08585667 8.23137882,4.98452333 8.28537882,4.86862333 C8.63479059,4.11559 9.11253176,3.51329 9.99368471,3.35812333 C10.2960847,3.30429 10.4879435,3.32455667 10.5914965,3.70265667 C10.8055906,4.48229 10.8837318,5.25685667 10.7458729,6.05232333 C10.7293553,6.14415667 10.7255435,6.23725667 10.7039435,6.43739 C10.7554024,6.42915667 10.8074965,6.42092333 10.8551435,6.41142333 C12.1746494,6.08589 13.5856376,5.92249 15.08112,5.92249 C18.7607435,5.92249 21.9270494,6.95672333 24.4936376,8.99732333 C27.1180376,11.06959 28.6706965,13.8613233 29.1084141,17.2946233 L29.1344612,17.4985567 L24.8849788,17.89819 L24.8589318,17.7094567 C24.5152376,15.2141233 23.4218965,13.2178567 21.6068612,11.7751233 C19.8140612,10.3564567 17.5771906,9.63509 14.9610494,9.63509 C11.7629788,9.63509 9.13667294,10.7155567 7.15963765,12.8473567 C5.17688471,14.98169 4.17121412,17.9406233 4.17121412,21.6443567 C4.17121412,25.45449 5.18895529,28.4419233 7.19775529,30.52179 C9.20274353,32.60039 11.84112,33.6542567 15.0410965,33.6542567 C17.6616847,33.6542567 19.8699671,32.9810233 21.6113082,31.6535567 C23.3462965,30.3305233 24.4536141,28.43369 24.9008612,26.01499 L24.9332612,25.8376567 L29.1846494,26.1942233 Z" id="Fill-24" fill="#FEFEFE" mask="url(#mask-4)"></path>
                </g>
            </g>
        </g>
    </g>
</svg>