<svg width="25px" height="25px" viewBox="0 0 25 25" version="1.1" xmlns="http://www.w3.org/2000/svg" xmlns:xlink="http://www.w3.org/1999/xlink">
    <defs>
        <polygon id="path-1" points="0.000952380952 0.000119047619 24.2402381 0.000119047619 24.2402381 24.2404762 0.000952380952 24.2404762"></polygon>
    </defs>
    <g id="Page-1" stroke="none" stroke-width="1" fill="none" fill-rule="evenodd">
        <g id="Homepage-V2" transform="translate(-1093.000000, -4762.000000)">
            <g id="Group-5" transform="translate(1093.000000, 4762.000000)">
                <g id="Group-3">
                    <mask id="mask-2" fill="white">
                        <use xlink:href="#path-1"></use>
                    </mask>
                    <g id="Clip-2"></g>
                    <path d="M21.1140476,0.000119047619 L3.12595238,0.000119047619 C1.39857143,0.000119047619 0.000952380952,1.39892857 0.000952380952,3.12511905 L0.000952380952,21.1144048 C0.000952380952,22.8405952 1.39857143,24.2405952 3.12595238,24.2405952 L12.1021429,24.2405952 L12.1021429,14.1203571 L9.90452381,14.1203571 L9.90452381,10.5346429 L12.1021429,10.5346429 L12.1021429,7.71083333 C12.1021429,5.06202381 13.5188095,3.6775 16.6616667,3.6775 L19.5866667,3.6775 L19.5866667,7.3525 L17.3009524,7.3525 C16.492619,7.3525 16.3259524,7.68345238 16.3259524,8.51797619 L16.3259524,10.5346429 L19.5866667,10.5346429 L19.2711905,14.0763095 L16.3259524,14.0763095 L16.3259524,24.2405952 L21.1140476,24.2405952 C22.8402381,24.2405952 24.2402381,22.8405952 24.2402381,21.1144048 L24.2402381,3.12511905 C24.2402381,1.39892857 22.8402381,0.000119047619 21.1140476,0.000119047619" id="Fill-1" fill="#FFFFFF" mask="url(#mask-2)"></path>
                </g>
            </g>
        </g>
    </g>
</svg>