<?xml version="1.0" encoding="UTF-8"?>
<svg width="25px" height="25px" viewBox="0 0 25 25" version="1.1" xmlns="http://www.w3.org/2000/svg" xmlns:xlink="http://www.w3.org/1999/xlink">
    <!-- Generator: sketchtool 64 (101010) - https://sketch.com -->
    <title>B026566F-9508-48E6-98B3-6B1F587D6D31</title>
    <desc>Created with sketchtool.</desc>
    <defs>
        <polygon id="path-1" points="0.000375 0 25 0 25 25 0.000375 25"></polygon>
    </defs>
    <g id="Page-1" stroke="none" stroke-width="1" fill="none" fill-rule="evenodd">
        <g id="Homepage-V2" transform="translate(-1193.000000, -4762.000000)">
            <g id="Group-5" transform="translate(1093.000000, 4762.000000)">
                <g id="Group-8" transform="translate(100.000000, 0.000000)">
                    <g id="Group-3">
                        <mask id="mask-2" fill="white">
                            <use xlink:href="#path-1"></use>
                        </mask>
                        <g id="Clip-2"></g>
                        <path d="M12.500375,0 C9.105375,0 8.679125,0.015 7.346625,0.075 C6.016625,0.13625 5.106625,0.3475 4.311625,0.65625 C3.490375,0.97625 2.792875,1.40375 2.097875,2.09875 C1.402875,2.7925 0.975375,3.49 0.655375,4.3125 C0.346625,5.1075 0.135375,6.015 0.075375,7.34625 C0.014125,8.68 0.000375,9.105 0.000375,12.5 C0.000375,15.895 0.014125,16.32125 0.075375,17.65375 C0.135375,18.985 0.346625,19.8925 0.655375,20.68875 C0.975375,21.51 1.402875,22.2075 2.097875,22.90125 C2.792875,23.5975 3.490375,24.025 4.311625,24.345 C5.106625,24.65375 6.016625,24.865 7.346625,24.925 C8.679125,24.985 9.105375,25 12.500375,25 C15.895375,25 16.320375,24.985 17.654125,24.925 C18.984125,24.865 19.892875,24.65375 20.687875,24.345 C21.510375,24.025 22.207875,23.5975 22.901625,22.90125 C23.596625,22.2075 24.024125,21.51 24.344125,20.68875 C24.652875,19.8925 24.864125,18.985 24.924125,17.65375 C24.985375,16.32125 25.000375,15.895 25.000375,12.5 C25.000375,9.105 24.985375,8.68 24.924125,7.34625 C24.864125,6.015 24.652875,5.1075 24.344125,4.3125 C24.024125,3.49 23.596625,2.7925 22.901625,2.09875 C22.207875,1.40375 21.510375,0.97625 20.687875,0.65625 C19.892875,0.3475 18.984125,0.13625 17.654125,0.075 C16.320375,0.015 15.895375,0 12.500375,0 M12.500375,2.2525 C15.837875,2.2525 16.232875,2.265 17.550375,2.325 C18.770375,2.38125 19.431625,2.58375 19.871625,2.75625 C20.455375,2.9825 20.871625,3.25375 21.309125,3.69125 C21.746625,4.12875 22.017875,4.545 22.244125,5.1275 C22.416625,5.56875 22.619125,6.23 22.675375,7.44875 C22.735375,8.7675 22.747875,9.1625 22.747875,12.5 C22.747875,15.8375 22.735375,16.2325 22.675375,17.55125 C22.619125,18.77 22.416625,19.4325 22.244125,19.87125 C22.017875,20.455 21.746625,20.87125 21.309125,21.31 C20.871625,21.74625 20.455375,22.0175 19.871625,22.245 C19.431625,22.41625 18.770375,22.62 17.550375,22.675 C16.232875,22.735 15.837875,22.7475 12.500375,22.7475 C9.161625,22.7475 8.767875,22.735 7.449125,22.675 C6.230375,22.62 5.567875,22.41625 5.129125,22.245 C4.544125,22.0175 4.127875,21.74625 3.690375,21.31 C3.254125,20.87125 2.982875,20.455 2.755375,19.87125 C2.584125,19.4325 2.380375,18.77 2.324125,17.55125 C2.265375,16.2325 2.252875,15.8375 2.252875,12.5 C2.252875,9.1625 2.265375,8.7675 2.324125,7.44875 C2.380375,6.23 2.584125,5.56875 2.755375,5.1275 C2.982875,4.545 3.254125,4.12875 3.690375,3.69125 C4.127875,3.25375 4.544125,2.9825 5.129125,2.75625 C5.567875,2.58375 6.230375,2.38125 7.449125,2.325 C8.767875,2.265 9.162875,2.2525 12.500375,2.2525" id="Fill-1" fill="#FFFFFF" mask="url(#mask-2)"></path>
                    </g>
                    <path d="M12.500375,16.66625 C10.197875,16.66625 8.332875,14.80125 8.332875,12.5 C8.332875,10.19875 10.197875,8.33375 12.500375,8.33375 C14.801625,8.33375 16.666625,10.19875 16.666625,12.5 C16.666625,14.80125 14.801625,16.66625 12.500375,16.66625 M12.500375,6.08125 C8.955375,6.08125 6.080375,8.955 6.080375,12.5 C6.080375,16.045 8.955375,18.91875 12.500375,18.91875 C16.045375,18.91875 18.919125,16.045 18.919125,12.5 C18.919125,8.955 16.045375,6.08125 12.500375,6.08125" id="Fill-4" fill="#FFFFFF"></path>
                    <path d="M20.673,5.827625 C20.673,6.656375 20.0005,7.327625 19.173,7.327625 C18.34425,7.327625 17.673,6.656375 17.673,5.827625 C17.673,4.998875 18.34425,4.327625 19.173,4.327625 C20.0005,4.327625 20.673,4.998875 20.673,5.827625" id="Fill-6" fill="#FFFFFF"></path>
                </g>
            </g>
        </g>
    </g>
</svg>