<?xml version="1.0" encoding="UTF-8"?>
<svg width="296px" height="307px" viewBox="0 0 296 307" version="1.1" xmlns="http://www.w3.org/2000/svg" xmlns:xlink="http://www.w3.org/1999/xlink">
    <!-- Generator: sketchtool 64 (101010) - https://sketch.com -->
    <title>EAAEB33F-4AC1-469F-82BA-948F05405D5D</title>
    <desc>Created with sketchtool.</desc>
    <defs>
        <polygon id="path-1" points="0.103740952 0.35750948 19.162946 0.35750948 19.162946 19.4816379 0.103740952 19.4816379"></polygon>
        <polygon id="path-3" points="0.335560635 0.855375229 23.9911289 0.855375229 23.9911289 21.5932722 0.335560635 21.5932722"></polygon>
        <polygon id="path-5" points="0 0.33168693 30.4760722 0.33168693 30.4760722 8.92184108 0 8.92184108"></polygon>
        <polygon id="path-7" points="0.19425761 0.122222712 62.6277101 0.122222712 62.6277101 58.7639311 0.19425761 58.7639311"></polygon>
    </defs>
    <g id="Welcome" stroke="none" stroke-width="1" fill="none" fill-rule="evenodd">
        <g id="About" transform="translate(-914.000000, -3880.000000)">
            <g id="Group-2" transform="translate(914.000000, 3880.000000)">
                <g id="Group-87">
                    <polygon id="Fill-1" fill="#00D2FF" points="152.38672 0.000281651376 161.171812 14.0058657 160.487723 20.3636761 163.559545 20.6932083 164.246453 14.3100492 176.053564 2.5144896 172.66319 2.15022049 163.023926 11.5723979 155.901133 0.376755657"></polygon>
                    <g id="Group-86" transform="translate(0.000000, 7.510703)">
                        <path d="M182.56594,5.03339174 C177.839337,3.87204924 175.687464,5.37606758 175.060696,7.91750183 C174.292975,11.0335049 176.079312,12.973144 180.374601,14.0293367 C184.597534,15.0686303 187.206093,13.981456 187.921191,11.0804468 C188.565813,8.46766086 187.148772,6.16093609 182.56594,5.03339174 M179.765686,16.3970859 C173.862601,14.9456425 171.14222,11.6306058 172.23507,7.19647431 C173.085483,3.74436728 176.479617,0.9175263 183.198347,2.56988104 C189.676518,4.16402783 191.638575,8.0799208 190.734601,11.7470217 C189.70095,15.9426884 185.76368,17.8729391 179.765686,16.3970859" id="Fill-2" fill="#00D2FF"></path>
                        <path d="M206.748952,25.6649183 L204.14979,24.5796217 L204.896838,22.5367104 C202.914108,23.8219795 200.146743,23.2023465 197.797537,22.2221997 C193.96739,20.6224199 192.293816,18.1570315 193.655416,14.9002028 C196.871949,7.14446269 196.935848,6.93134648 196.871949,6.82431896 C196.871949,6.82431896 199.654349,7.98566147 199.608305,7.96594587 C199.677841,7.99598869 198.994692,9.68965229 196.746032,15.0663771 C195.698286,17.5721355 197.151035,19.2226125 199.863898,20.3548511 C202.851149,21.6025667 205.409905,21.1181263 206.220851,19.1822425 L209.231594,11.9832333 L211.898413,13.0966951 C211.898413,13.0966951 208.525892,21.1613128 207.658565,23.234267 C206.840102,25.1936217 206.722641,25.6001385 206.748952,25.6649183" id="Fill-4" fill="#00D2FF"></path>
                        <path d="M226.294161,24.5702333 C225.478517,23.8107135 224.526618,23.0887471 223.243012,22.3451875 C220.719964,20.8815391 217.59458,21.0974719 215.981145,23.8745544 L212.91778,29.1508235 L210.394733,27.6871752 L217.218707,15.9394963 L219.676917,17.3646523 L218.150872,19.9924596 C219.527507,18.7053128 222.317425,18.7231508 224.826377,20.0638113 C226.295101,20.8308419 227.075977,21.4542303 227.759126,22.0494535 L226.294161,24.5702333 Z" id="Fill-6" fill="#00D2FF"></path>
                        <path d="M240.19667,28.8444807 L242.316594,26.2063462 L244.725001,28.1384746 L242.605077,30.7766092 L240.19667,28.8444807 Z M226.299705,43.5335388 C225.66354,43.022811 224.645864,42.0802177 224.454169,41.7675847 L226.001826,39.8420281 C226.220772,40.0823706 226.67182,40.5067254 227.384099,41.0784777 C228.406474,41.8980832 229.644975,42.130915 230.742524,40.7649058 L239.098182,30.3691535 L241.372213,32.1933156 L233.155629,42.4153829 C230.881597,45.2459792 228.341636,45.171811 226.299705,43.5335388 L226.299705,43.5335388 Z" id="Fill-8" fill="#00D2FF"></path>
                        <path d="M250.361592,43.243344 C246.914837,39.8081361 244.294062,39.9846376 242.442888,41.8379037 C240.173554,44.1098914 240.700716,46.6945122 243.832678,49.8161483 C246.911078,52.8861483 249.708513,53.3020535 251.820919,51.1877905 C253.723777,49.2819495 253.704043,46.5752798 250.361592,43.243344 M242.085808,51.5295275 C237.782062,47.2390382 237.16563,42.9954908 240.396259,39.762133 C242.90897,37.2441697 247.278494,36.576656 252.177999,41.4614297 C256.901783,46.1697018 256.556919,50.5371758 253.885402,53.2100474 C250.829554,56.2697202 246.46003,55.8904297 242.085808,51.5295275" id="Fill-10" fill="#00D2FF"></path>
                        <path d="M260.424653,73.3659587 L258.755777,71.0977263 L260.448145,69.7307783 C258.084843,69.8124572 256.031637,67.8577966 254.524386,65.8083135 C252.064297,62.4669893 251.898913,59.4927508 254.746151,57.400081 C261.501529,52.4064021 261.665034,52.2543104 261.665973,52.1313226 C261.665973,52.1313226 263.45325,54.5572798 263.424119,54.5178486 C263.467345,54.5769954 262.009897,55.68013 257.310545,59.1331758 C255.119205,60.742344 255.514811,62.9035489 257.257923,65.2712982 C259.175815,67.8775122 261.618989,68.7787966 263.311357,67.5348364 L269.603472,62.9119985 L271.316513,65.2403165 C271.316513,65.2403165 264.268894,70.4180076 262.456246,71.7492798 C260.745084,73.0082615 260.434989,73.2974235 260.424653,73.3659587" id="Fill-12" fill="#00D2FF"></path>
                        <path d="M277.75005,82.4911817 C277.441834,81.4209064 276.998303,80.3130777 276.282265,79.0156037 C274.871802,76.464781 272.082824,75.0424416 269.271294,76.5934018 L263.927319,79.5404141 L262.517796,76.9914691 L274.416056,70.428992 L275.788932,72.914096 L273.127751,74.3814997 C274.970469,73.9862489 277.351624,75.4358147 278.810951,77.8739768 C279.676399,79.285989 280.024081,80.2220104 280.303167,81.0838636 L277.75005,82.4911817 Z" id="Fill-14" fill="#00D2FF"></path>
                        <path d="M274.377623,102.26461 C274.313724,102.10313 274.788264,101.891892 281.366042,99.3119651 C283.642893,98.4200691 284.238651,96.4898183 283.048074,93.4554942 C282.019121,90.8361364 279.815566,88.8091853 277.516163,89.7104697 L270.523045,92.4518765 L269.467782,89.7630446 L282.117788,84.8031639 L283.138283,87.3999896 L280.63027,88.3838917 C283.062169,88.4909193 284.89455,90.9290813 285.924442,93.5484391 C287.702321,98.0755156 285.987401,100.602867 282.997331,101.775476 C275.590753,104.679302 275.485509,104.747837 275.406575,104.883968 L274.377623,102.26461 Z" id="Fill-16" fill="#00D2FF"></path>
                        <path d="M289.201491,119.82379 C289.950418,118.768536 290.265211,116.797915 289.631865,114.003934 C289.042684,111.403353 287.926342,109.604539 286.764894,108.955802 C286.072348,108.580267 285.390138,108.481689 284.578253,108.588717 L287.382265,120.969172 C288.105821,120.805814 288.773935,120.401175 289.201491,119.82379 M281.831561,123.540649 C280.391027,122.549236 278.909148,120.479099 278.057796,116.721869 C277.200805,112.941169 277.552246,109.899334 279.393084,107.96345 C280.375992,106.931668 281.510189,106.345833 283.054088,105.996585 C284.548183,105.658603 285.894748,105.784408 287.046799,106.283869 C289.32083,107.263077 291.135357,109.78949 291.975434,113.500717 C292.946126,117.78745 292.077859,120.997337 289.861148,122.737943 C289.048323,123.403579 287.324945,124.071093 286.049796,124.25886 L282.6021,109.036542 C281.797732,109.292845 281.230164,109.801695 280.752805,110.49268 C279.981326,111.678432 279.785872,113.723221 280.369415,116.30127 C280.888119,118.589218 281.68403,119.978698 282.357783,120.711931 C282.854875,121.232986 283.437478,121.45549 283.778583,121.506187 L284.449516,124.468221 C283.753211,124.524551 282.746811,124.220368 281.831561,123.540649" id="Fill-18" fill="#00D2FF"></path>
                        <g id="Group-22" transform="translate(276.266667, 123.926606)">
                            <mask id="mask-2" fill="white">
                                <use xlink:href="#path-1"></use>
                            </mask>
                            <g id="Clip-21"></g>
                            <polygon id="Fill-20" fill="#00D2FF" mask="url(#mask-2)" points="0.35463619 10.491326 0.103740952 7.31617615 4.6705981 9.58065321 17.6494933 0.35750948 17.9003886 3.53265933 7.35902984 10.9795217 18.9180648 16.3806563 19.1633219 19.4816379"></polygon>
                        </g>
                        <path d="M280.168041,163.515523 C280.878441,158.005483 282.088752,155.771049 284.527228,155.412413 C284.955723,155.368287 285.355088,155.370165 285.697133,155.414291 L285.334415,158.230804 C285.138022,158.205456 284.813831,158.212966 284.502796,158.296523 C283.564053,158.625116 282.978631,160.267144 282.515368,163.866648 C281.962834,168.152443 282.544498,169.247128 283.623253,169.387015 C284.775304,169.534413 285.269577,168.602147 286.041996,164.918147 C286.173552,164.288187 286.612383,162.42741 286.777768,161.727037 C287.71839,157.51541 289.073412,156.097765 291.401006,156.396315 C293.827266,156.708009 295.080803,159.359287 294.411749,164.551061 C293.809412,169.227413 292.611317,171.563242 290.344803,172.142505 C289.856168,172.255165 289.236917,172.224183 288.992599,172.193202 L289.354377,169.377627 C289.502847,169.396404 289.873082,169.418936 290.112701,169.299703 C290.827799,168.969232 291.543837,167.667064 291.97891,164.287248 C292.508891,160.17326 291.97891,159.259771 291.047685,159.139599 C290.140891,159.023183 289.685145,159.661593 288.915545,163.12215 C288.771774,163.849749 288.323545,165.783755 288.182593,166.487884 C287.253247,170.999 285.867215,172.463587 283.393031,172.145321 C280.647279,171.792318 279.417234,169.343829 280.168041,163.515523" id="Fill-23" fill="#00D2FF"></path>
                        <path d="M288.29855,181.246134 C287.603185,181.070572 282.761001,179.857593 282.091007,179.69048 C280.24547,179.228572 279.585813,179.928945 279.128188,181.748413 C278.955286,182.443153 278.70721,183.934027 278.67714,184.460715 L276.375858,183.884269 C276.346728,183.189529 276.574131,181.668611 276.941547,180.208718 C277.620937,177.502049 278.988175,175.910718 282.08067,176.68526 C282.943299,176.901192 288.12095,178.197728 289.00801,178.419293 L289.805801,175.234755 L292.179439,175.828101 L291.386347,178.990107 C291.895655,179.193835 294.526766,179.878247 294.526766,179.878247 L293.895299,182.595244 C293.895299,182.595244 291.186194,181.917403 290.683464,181.791599 L289.301191,187.299761 L286.928493,186.704538 L288.29855,181.246134 Z" id="Fill-25" fill="#00D2FF"></path>
                        <path d="M278.490613,196.495866 C279.501712,193.868998 279.80147,192.132148 279.496074,191.062811 C279.379553,190.540817 279.053483,190.1512 278.592099,189.974698 C278.199312,189.824484 277.842232,189.791625 277.457902,189.961554 C276.677966,190.269493 275.825674,191.450551 275.044797,193.478441 C274.397356,195.1599 274.067528,196.568157 274.051553,197.778319 C274.075985,198.608252 274.329699,199.737674 275.100239,200.350735 C275.377445,200.590139 276.053077,201.035148 276.423312,201.177851 C277.084848,199.870989 277.883578,198.141649 278.490613,196.495866 L278.490613,196.495866 Z M270.682791,199.236334 C270.700645,199.189392 271.78128,199.340545 272.418385,199.610931 C271.745572,198.400769 271.69201,195.999221 273.17389,192.149986 C274.761953,188.026609 276.857445,186.159261 279.195375,187.031441 C279.333509,187.084955 279.528023,187.132836 279.703743,187.22672 C282.046372,188.154291 282.777445,191.000848 280.560734,196.894872 C279.993166,198.369787 279.097648,200.352613 278.346842,201.890429 C278.807286,202.067869 279.480099,202.246249 280.03827,202.170203 C281.227909,202.177713 282.374321,201.056741 283.466232,198.223328 C284.397458,195.803943 284.534651,194.347805 284.145623,193.431499 C283.94735,192.984613 283.557382,192.62316 283.103515,192.423187 L284.115553,189.79538 C284.730105,190.059194 285.406677,190.636579 285.72147,191.127591 C287.05488,192.751781 287.166702,195.28101 285.720531,199.036362 C283.901305,203.760594 281.624455,205.477729 279.014956,204.898466 C278.379731,204.760457 276.93262,204.257239 276.064353,203.896726 C275.441343,203.657322 273.605204,202.925028 272.682436,202.571087 C271.551997,202.136405 270.161267,201.758992 269.698943,201.793729 L270.682791,199.236334 Z" id="Fill-27" fill="#00D2FF"></path>
                        <path d="M271.480582,220.957852 C272.216353,220.120408 272.910778,219.14965 273.618359,217.847482 C275.00815,215.287271 274.703693,212.174084 271.879947,210.642839 L266.515299,207.737136 L267.90321,205.175986 L279.849394,211.647396 L278.495312,214.142827 L275.823794,212.696078 C277.149686,214.032044 277.213585,216.818515 275.945013,219.360888 C275.220518,220.850824 274.619121,221.646959 274.044036,222.346393 L271.480582,220.957852 Z" id="Fill-29" fill="#00D2FF"></path>
                        <path d="M267.077699,228.115646 C266.488518,227.709129 262.380226,224.875716 261.810778,224.483282 C260.244328,223.40268 259.381699,223.827034 258.31328,225.370484 C257.906397,225.960074 257.151832,227.270692 256.938524,227.753254 L254.986804,226.406961 C255.202931,225.746019 255.950918,224.401603 256.806969,223.162337 C258.394093,220.865939 260.233991,219.854811 262.857585,221.664891 C263.588658,222.169046 267.981674,225.199615 268.734359,225.717854 L270.602448,223.015878 L272.616188,224.40442 L270.762194,227.08668 C271.168137,227.455643 273.390486,229.018808 273.390486,229.018808 L271.843769,231.343371 C271.843769,231.343371 269.546245,229.758612 269.119629,229.463817 L265.88994,234.137352 L263.87714,232.748811 L267.077699,228.115646 Z" id="Fill-31" fill="#00D2FF"></path>
                        <path d="M247.850855,234.349154 C251.525013,230.178836 253.779312,229.003411 256.000721,230.068053 C256.381293,230.271781 256.711121,230.496163 256.969534,230.724301 L255.092048,232.855463 C254.944518,232.725903 254.670131,232.549402 254.366613,232.447069 C253.404378,232.193582 251.999553,233.227243 249.598664,235.952689 C246.742029,239.196374 246.610474,240.430007 247.427058,241.14728 C248.299083,241.91431 249.231248,241.416726 251.935655,238.795491 C252.396099,238.346726 253.801864,237.049252 254.330905,236.560117 C257.468505,233.596206 259.385458,233.176546 261.148302,234.725628 C262.984442,236.341368 262.539972,239.238622 259.078182,243.168598 C255.959375,246.708955 253.659032,247.975448 251.454537,247.188702 C250.988455,247.008445 250.492302,246.637604 250.306245,246.474246 L252.183731,244.343084 C252.294613,244.440723 252.589674,244.666044 252.854664,244.702659 C253.632721,244.827524 254.955794,244.148744 257.209153,241.590411 C259.952086,238.476286 260.024442,237.421971 259.31968,236.802338 C258.633712,236.198665 257.897001,236.473744 255.321331,238.911906 C254.795109,239.434839 253.34048,240.787705 252.830232,241.292799 C249.532886,244.511136 247.564251,244.951451 245.690524,243.30379 C243.612886,241.47775 243.964328,238.760754 247.850855,234.349154" id="Fill-33" fill="#00D2FF"></path>
                        <path d="M222.944757,256.772171 C223.08289,256.669838 223.412719,257.070722 227.622497,262.745058 C229.079004,264.709107 231.101201,264.780459 233.722916,262.838942 C235.986611,261.163116 237.371703,258.509021 235.89922,256.524318 L231.424452,250.493223 L233.748287,248.772333 L241.843652,259.685385 L239.59969,261.347128 L237.995652,259.184046 C238.525633,261.558367 236.648147,263.962731 234.384452,265.639495 C230.471614,268.53581 227.580211,267.54252 225.666077,264.962593 C220.928198,258.572862 220.83423,258.488367 220.681062,258.447997 L222.944757,256.772171 Z" id="Fill-35" fill="#00D2FF"></path>
                        <path d="M215.347423,274.516583 C219.655868,272.251168 220.264782,269.697528 219.045074,267.380476 C217.54816,264.540492 214.922687,264.274801 211.00797,266.333672 C207.15903,268.357807 205.929925,270.902996 207.322535,273.546764 C208.57795,275.928596 211.169595,276.713464 215.347423,274.516583 M209.889747,264.159324 C215.26943,261.328727 219.507398,262.002813 221.636719,266.045449 C223.295258,269.191495 222.635601,273.55803 216.51075,276.778244 C210.605785,279.884859 206.53696,278.256914 204.775055,274.914651 C202.759436,271.090764 204.421735,267.034045 209.889747,264.159324" id="Fill-37" fill="#00D2FF"></path>
                        <polygon id="Fill-39" fill="#00D2FF" points="178.925516 276.361212 182.13923 275.378249 189.853084 284.095359 190.31165 284.833286 190.254329 283.972371 191.733389 272.440625 194.969656 271.45109 205.355967 282.474925 202.449529 283.364004 193.97923 274.284503 192.477618 286.417105 189.287396 287.393497 181.07645 278.234194 179.1501 290.497295 176.409046 291.335677"></polygon>
                        <path d="M162.021379,288.021579 C162.148236,289.62042 160.789455,290.941365 159.336706,291.056842 C157.857646,291.173258 156.309989,290.08139 156.182192,288.482549 C156.060033,286.931588 157.415995,285.585295 158.894116,285.468879 C160.347804,285.354341 161.898281,286.470619 162.021379,288.021579" id="Fill-41" fill="#00D2FF"></path>
                        <g id="Group-45" transform="translate(118.400000, 277.896024)">
                            <mask id="mask-4" fill="white">
                                <use xlink:href="#path-3"></use>
                            </mask>
                            <g id="Clip-44"></g>
                            <polygon id="Fill-43" fill="#00D2FF" mask="url(#mask-4)" points="12.1905956 7.2347789 12.9028749 0.855375229 15.9718781 1.19711223 15.2633575 7.55304495 23.9911289 21.5933661 20.4776559 21.2018706 13.4009067 9.9780633 3.72499556 19.3589318 0.335560635 18.981519"></polygon>
                        </g>
                        <path d="M112.243858,286.808601 C116.964823,287.993414 119.125153,286.497845 119.763197,283.960166 C120.545953,280.846041 118.768074,278.897952 114.477483,277.821105 C110.259248,276.763035 107.643172,277.838004 106.915858,280.735258 C106.25902,283.346166 107.665724,285.658524 112.243858,286.808601 M115.097674,275.456172 C120.994182,276.935781 123.699528,280.263023 122.585064,284.693399 C121.718677,288.14175 118.311388,290.952631 111.598296,289.268356 C105.127642,287.644166 103.183439,283.719824 104.105267,280.055539 C105.158651,275.865506 109.104378,273.953093 115.097674,275.456172" id="Fill-46" fill="#00D2FF"></path>
                        <path d="M88.1627073,266.075304 L90.7581105,267.171867 L90.001666,269.211961 C91.990974,267.934203 94.7564597,268.566041 97.1009676,269.557454 C100.925476,271.174133 102.588714,273.645154 101.212079,276.898228 C97.9607771,284.639885 97.8968787,284.854879 97.9598375,284.960968 C97.9598375,284.960968 95.1821359,283.78742 95.2281803,283.807136 C95.1586438,283.778032 95.8493105,282.086246 98.1214629,276.718909 C99.1804851,274.216906 97.7352533,272.559857 95.0261486,271.415414 C92.0445359,270.155494 89.4820216,270.628668 88.6635581,272.560796 L85.6218057,279.747601 L82.9578057,278.621934 C82.9578057,278.621934 86.366974,270.57046 87.2427581,268.501261 C88.0706184,266.545662 88.1880787,266.140084 88.1627073,266.075304" id="Fill-48" fill="#00D2FF"></path>
                        <path d="M68.598141,267.066341 C69.4100267,267.828678 70.359106,268.558155 71.638014,269.307347 C74.1535441,270.781323 77.2789283,270.58135 78.9055187,267.812717 L81.9951949,262.55147 L84.5097854,264.026384 L77.6313092,275.740265 L75.1796775,274.302904 L76.7188775,271.684485 C75.3366044,272.963182 72.546687,272.932201 70.0452521,271.581213 C68.5793473,270.805733 67.8012902,270.179528 67.1218997,269.580549 L68.598141,267.066341 Z" id="Fill-50" fill="#00D2FF"></path>
                        <path d="M68.7009422,248.124629 C69.3352279,248.639112 70.3482057,249.585461 70.5389613,249.899033 L68.982847,251.818017 C68.763901,251.577675 68.3147327,251.150504 67.6043327,250.574996 C66.5866565,249.750696 65.3490946,249.512231 64.2449676,250.874485 L55.8413867,261.236439 L53.5748724,259.40195 L61.837501,249.211803 C64.1256279,246.391534 66.6646502,246.476969 68.7009422,248.124629 L68.7009422,248.124629 Z M54.7353803,262.757357 L52.6032406,265.386103 L50.2023517,263.44177 L52.3344914,260.813962 L54.7353803,262.757357 Z" id="Fill-52" fill="#00D2FF"></path>
                        <path d="M44.6381156,248.313429 C48.0698362,251.765536 50.6915505,251.598423 52.5502425,249.753607 C54.8308521,247.491946 54.3149663,244.905448 51.19616,241.76879 C48.1299759,238.685646 45.3344203,238.257536 43.2126171,240.364289 C41.3022425,242.26168 41.3106997,244.96835 44.6381156,248.313429 M52.9496076,240.063861 C57.23456,244.373127 57.8321981,248.618552 54.5893537,251.838766 C52.063487,254.344524 47.6920838,254.9942 42.8151314,250.089711 C38.1110806,245.359845 38.4737981,240.995188 41.1575314,238.331705 C44.2255949,235.285176 48.594179,235.684182 52.9496076,240.063861" id="Fill-54" fill="#00D2FF"></path>
                        <path d="M34.6870654,218.127631 L36.3474844,220.401496 L34.646659,221.761872 C37.01184,221.690521 39.0547098,223.65457 40.5544432,225.709686 C42.9994971,229.061337 43.1517257,232.036515 40.2960305,234.11698 C33.51904,239.080616 33.3545956,239.231769 33.3527162,239.355695 C33.3527162,239.355695 31.5757765,236.921288 31.606786,236.96072 C31.562621,236.900634 33.0257067,235.80501 37.7391543,232.373557 C39.9361321,230.773778 39.5508622,228.609756 37.8190273,226.235435 C35.9114717,223.62171 33.4729956,222.708221 31.7749892,223.943732 L25.4640813,228.540282 L23.7604368,226.205392 C23.7604368,226.205392 30.8306083,221.057744 32.648894,219.733983 C34.365694,218.48345 34.6767289,218.196166 34.6870654,218.127631" id="Fill-56" fill="#00D2FF"></path>
                        <path d="M17.4121295,208.945514 C17.7165867,210.017667 18.1563581,211.127374 18.8676978,212.427664 C20.2650057,214.98412 23.0492851,216.417725 25.8683327,214.877092 L31.2235835,211.952612 L32.6227708,214.509068 L20.6972597,221.021787 L19.33472,218.53105 L22.001539,217.073973 C20.1578819,217.462652 17.7823644,216.003698 16.3324343,213.558964 C15.4726248,212.142257 15.128701,211.205297 14.853374,210.342505 L17.4121295,208.945514 Z" id="Fill-58" fill="#00D2FF"></path>
                        <path d="M20.8735441,189.18138 C20.9355632,189.34286 20.4610235,189.55316 13.8719695,192.103044 C11.59136,192.985551 10.9871441,194.912986 12.1645663,197.952004 C13.1822425,200.576056 15.3754616,202.612395 17.6805029,201.720499 L24.6839568,199.010074 L25.7279441,201.7036 L13.0572648,206.60809 L12.0480457,204.005631 L14.5588775,203.034872 C12.1288584,202.916579 10.306814,200.470906 9.29007746,197.846854 C7.53099175,193.312267 9.25718857,190.791487 12.2510171,189.632022 C19.6707505,186.761995 19.7769346,186.694398 19.8558679,186.557328 L20.8735441,189.18138 Z" id="Fill-60" fill="#00D2FF"></path>
                        <path d="M6.13312,171.579953 C5.3794946,172.63239 5.05718349,174.600194 5.67925333,177.395115 C6.2571581,179.998513 7.36598349,181.800143 8.52367238,182.453574 C9.21433905,182.830987 9.89654857,182.93332 10.7074946,182.82817 L7.95516444,170.442081 C7.23160889,170.602623 6.56161524,171.004445 6.13312,171.579953 M13.5143263,167.894075 C14.9501613,168.891121 16.4235835,170.966892 17.2589613,174.725999 C18.0990375,178.509516 17.7381994,181.547595 15.8879644,183.475968 C14.9012978,184.503996 13.7652216,185.084198 12.2213232,185.426873 C10.7262883,185.759222 9.38066286,185.626846 8.23049143,185.123629 C5.9611581,184.135032 4.1579073,181.602048 3.33380571,177.890821 C2.38002794,173.600332 3.26238984,170.395139 5.48567873,168.664861 C6.30038349,168.00298 8.02658032,167.3411 9.30172952,167.159904 L12.686466,182.390672 C13.4889549,182.136246 14.0612216,181.630213 14.53952,180.942983 C15.3147581,179.759109 15.5186692,177.716198 14.9464025,175.13721 C14.4380343,172.849262 13.6468216,171.455087 12.9777676,170.719039 C12.4825549,170.197045 11.9008914,169.971724 11.5597867,169.921026 L10.9010692,166.957115 C11.5983137,166.903601 12.6028343,167.21154 13.5143263,167.894075" id="Fill-62" fill="#00D2FF"></path>
                        <polygon id="Fill-64" fill="#00D2FF" points="18.769313 156.990412 19.006113 160.167439 14.447713 157.88043 1.42559238 167.046305 1.18879238 163.869277 11.765859 156.471234 0.23031619 151.014708 9.3968254e-05 147.911849"></polygon>
                        <path d="M15.3529092,127.88362 C14.6180775,133.389904 13.3974298,135.618705 10.9570743,135.967014 C10.5276394,136.008323 10.129214,136.005506 9.78622984,135.960442 L10.1630425,133.144867 C10.3584965,133.172094 10.682687,133.165522 10.9927822,133.081965 C11.9343441,132.758066 12.5272838,131.118855 13.0074616,127.520289 C13.5797283,123.23825 13.0027632,122.139809 11.9249473,121.996167 C10.7738362,121.842198 10.2758044,122.772586 9.48553143,126.453769 C9.35021714,127.082791 8.90386794,128.94169 8.73566476,129.642063 C7.77530921,133.848996 6.41370921,135.261008 4.08705524,134.951191 C1.6617346,134.628231 0.420413968,131.97132 1.11389968,126.783302 C1.73784889,122.107889 2.94628063,119.777693 5.21655365,119.208757 C5.70424889,119.099852 6.32443937,119.131772 6.56781714,119.164632 L6.19288381,121.979268 C6.04629333,121.959552 5.67511873,121.935143 5.43456,122.052497 C4.7185219,122.380152 3.99590603,123.678565 3.5457981,127.056503 C2.99608381,131.168613 3.52136635,132.085858 4.45259175,132.208846 C5.3593854,132.330895 5.81889016,131.695302 6.60352508,128.236623 C6.75105524,127.509962 7.20868063,125.577834 7.35151238,124.874644 C8.30247111,120.366344 9.69508063,118.90739 12.1683251,119.2388 C14.9121981,119.604947 16.1300267,122.05813 15.3529092,127.88362" id="Fill-66" fill="#00D2FF"></path>
                        <path d="M7.30227302,110.1255 C7.99575873,110.302002 12.8332444,111.538451 13.5032381,111.70932 C15.3478349,112.179678 16.0103111,111.48306 16.475454,109.66547 C16.6521143,108.971669 16.9067683,107.482672 16.9387175,106.955045 L19.2381206,107.541818 C19.2634921,108.236558 19.0285714,109.755598 18.6545778,111.215491 C17.9629714,113.918406 16.5882159,115.505042 13.4994794,114.716418 C12.6377905,114.495791 7.46577778,113.174846 6.57871746,112.948586 L5.76495238,116.130308 L3.39507302,115.524757 L4.20226032,112.367445 C3.69389206,112.160901 1.06653968,111.464283 1.06653968,111.464283 L1.71022222,108.748225 C1.71022222,108.748225 4.41650794,109.440149 4.9192381,109.567831 L6.32688254,104.06624 L8.6967619,104.670852 L7.30227302,110.1255 Z" id="Fill-68" fill="#00D2FF"></path>
                        <path d="M17.1735441,94.9299391 C16.1511695,97.5530523 15.844833,99.2889636 16.1436521,100.359239 C16.2582933,100.881233 16.5834235,101.272728 17.0438679,101.451107 C17.4347759,101.604138 17.7937346,101.638875 18.1771251,101.469884 C18.958941,101.163823 19.8168711,99.987459 20.6062044,97.9623856 C21.2621029,96.2837434 21.5985092,94.8773642 21.6191822,93.6662633 C21.5985092,92.8372694 21.3494933,91.7059697 20.5827124,91.0891532 C20.3045663,90.8488107 19.630814,90.4019239 19.2624584,90.2573428 C18.5952838,91.5613887 17.7880965,93.2879116 17.1735441,94.9299391 L17.1735441,94.9299391 Z M24.9935822,92.2242083 C24.9757283,92.2702113 23.8950933,92.1153031 23.2608076,91.8411624 C23.9270425,93.054141 23.9712076,95.4575661 22.4733537,99.2992908 C20.8664965,103.417973 18.7625473,105.274994 16.4274362,104.391548 C16.2902425,104.338034 16.0966679,104.290153 15.921887,104.194392 C13.5811378,103.256493 12.8632203,100.40712 15.1062425,94.5215446 C15.6803886,93.0494468 16.5843632,91.0703765 17.342687,89.5363153 C16.8803632,89.3569972 16.2103695,89.1748627 15.6503187,89.2490309 C14.4606806,89.2377648 13.3105092,90.3512266 12.2063822,93.1818229 C11.2648203,95.5974529 11.1219886,97.0526517 11.5063187,97.9698963 C11.7027124,98.417722 12.091741,98.7810523 12.5427886,98.9829024 L11.5194743,101.606016 C10.9068013,101.341263 10.2311695,100.760123 9.91919492,100.268172 C8.59330286,98.6374101 8.49275683,96.1081807 9.95490286,92.3575232 C11.7938616,87.6408015 14.0791695,85.9339942 16.6858489,86.5254621 C17.3210743,86.6662878 18.766306,87.1760768 19.6326933,87.5403459 C20.2547632,87.7825661 22.0871441,88.5223703 23.008033,88.8810064 C24.1365917,89.3203826 25.5263822,89.7024896 25.9896457,89.6705691 L24.9935822,92.2242083 Z" id="Fill-70" fill="#00D2FF"></path>
                        <path d="M24.292673,70.5026908 C23.5531429,71.3373177 22.8530794,72.3052596 22.1408,73.6036725 C20.7387937,76.1582505 21.0300952,79.2751924 23.8472635,80.8167642 L29.1996952,83.7478162 L27.7976889,86.303333 L15.8796952,79.7765318 L17.245054,77.2867336 L19.9109333,78.7456878 C18.5906794,77.4040884 18.5408762,74.6176174 19.8197841,72.0799385 C20.5508571,70.5946969 21.1560127,69.7995012 21.7357968,69.1028835 L24.292673,70.5026908 Z" id="Fill-72" fill="#00D2FF"></path>
                        <path d="M28.7369016,63.3422679 C29.3251429,63.7516012 33.4202794,66.6056685 33.9878476,66.9999804 C35.5496,68.0890324 36.4150476,67.668433 37.4891048,66.1287388 C37.899746,65.5419651 38.6618286,64.2351028 38.8770159,63.7534789 L40.8230984,65.1100997 C40.6041524,65.7691639 39.8486476,67.1098245 38.986019,68.346274 C37.3885587,70.6351609 35.5430222,71.6369009 32.9278857,69.8155554 C32.1977524,69.3067052 27.8188317,66.255482 27.0689651,65.7325492 L25.1877206,68.4260752 L23.1805587,67.0272067 L25.0467683,64.3533963 C24.6445841,63.9825554 22.427873,62.4071853 22.427873,62.4071853 L23.984927,60.0901333 C23.984927,60.0901333 26.275873,61.6870966 26.7015492,61.9837694 L29.9537905,57.3252557 L31.9609524,58.7231853 L28.7369016,63.3422679 Z" id="Fill-74" fill="#00D2FF"></path>
                        <path d="M47.9857346,57.202174 C44.2956013,61.3565318 42.0375441,62.5216297 39.820833,61.4466602 C39.4402616,61.2419936 39.1123124,61.0166725 38.85296,60.787596 L40.7398425,58.6648835 C40.8873727,58.795382 41.1598806,58.9718835 41.4652775,59.0760945 C42.4246933,59.3342749 43.8332775,58.3062474 46.2445029,55.592067 C49.115233,52.3624645 49.2524267,51.1297703 48.4386616,50.4087428 C47.5713346,49.6379569 46.6372902,50.1308468 43.923487,52.7398774 C43.4602235,53.1877031 42.0488203,54.4786052 41.51696,54.9639844 C38.3680838,57.9138131 36.4492521,58.3250242 34.6929854,56.767492 C32.8653029,55.146119 33.3229283,52.2516817 36.7997537,48.3376664 C39.9335949,44.81233 42.2386362,43.555226 44.4393727,44.3513606 C44.9045156,44.5334951 45.3987886,44.9062138 45.583906,45.0705104 L43.6979632,47.1932229 C43.586141,47.094645 43.29296,46.8674462 43.0289092,46.8308315 C42.2499124,46.7012719 40.92496,47.3753575 38.6622044,49.9224248 C35.9061156,53.0243453 35.8281219,54.0777214 36.5310044,54.7001709 C37.2150933,55.3057214 37.9508648,55.0353361 40.5368711,52.6093789 C41.0668521,52.0883239 42.526179,50.7420303 43.038306,50.239752 C46.3488076,47.0354982 48.3183822,46.6036327 50.1836521,48.258804 C52.2537727,50.0951709 51.8901156,52.8084125 47.9857346,57.202174" id="Fill-76" fill="#00D2FF"></path>
                        <path d="M72.9754641,34.9047734 C72.8373308,35.0071067 72.5093816,34.6043453 68.3259149,28.9112321 C66.8769244,26.9406113 64.8547276,26.8608101 62.2254959,28.790122 C59.9552229,30.4565593 58.5588546,33.1050211 60.0210006,35.0953575 L64.4685181,41.1452291 L62.1390451,42.8567306 L54.0916038,31.9089416 L56.3430832,30.2575257 L57.9377244,32.4262413 C57.4171403,30.0509813 59.3049625,27.6541281 61.5771149,25.9876908 C65.5012292,23.1082749 68.387934,24.115648 70.2898514,26.7040242 C75.0014197,33.1125318 75.0944483,33.1979661 75.2476165,33.2383361 L72.9754641,34.9047734 Z" id="Fill-78" fill="#00D2FF"></path>
                        <path d="M80.6497575,17.1860853 C76.3319162,19.4346021 75.7117257,21.9854248 76.9220368,24.3071709 C78.4076749,27.1537275 81.0331479,27.4306847 84.9572622,25.3868346 C88.814659,23.3786602 90.05504,20.8391037 88.6718273,18.1887642 C87.4267479,15.8012994 84.8369829,15.0051648 80.6497575,17.1860853 M86.0670273,27.5668162 C80.6732495,30.3748804 76.4381003,29.6848346 74.325694,25.6318713 C72.6803098,22.4783147 73.357821,18.114596 79.4948876,14.9187917 C85.4139479,11.8365869 89.4780749,13.480492 91.2258844,16.8312046 C93.2255289,20.6644798 91.5463162,24.7136878 86.0670273,27.5668162" id="Fill-80" fill="#00D2FF"></path>
                        <polygon id="Fill-82" fill="#00D2FF" points="117.099197 15.5082881 113.880785 16.47623 106.207337 7.72156636 105.752531 6.98082324 105.805153 7.84173761 104.271591 19.3678508 101.028747 20.3433034 90.6950578 9.26783242 93.6061943 8.39189664 102.034207 17.5136459 103.59408 5.38667645 106.789001 4.42530642 114.956721 13.6249792 116.94321 1.37032783 119.688963 0.545089297"></polygon>
                        <path d="M134.040076,3.91673792 C133.918857,2.31601927 135.283276,1.00070734 136.736965,0.890863303 C138.216025,0.780080428 139.760863,1.8785208 139.881143,3.47923945 C139.997663,5.03113853 138.636063,6.37086024 137.156063,6.48070428 C135.702375,6.59054832 134.155657,5.46769817 134.040076,3.91673792" id="Fill-84" fill="#00D2FF"></path>
                    </g>
                </g>
                <g id="Group-9" transform="translate(97.000000, 107.000000)">
                    <path d="M57.768815,12.3636828 C56.2178576,9.80079891 53.2693341,8.44205673 47.7365918,8.44205673 L20.5181411,8.44205673 L20.5181411,25.9336847 L49.4324189,25.9336847 C53.8594649,25.8596507 56.5885535,24.729543 57.768815,22.5433617 C58.4335111,21.1846195 58.7999461,19.1486838 58.7999461,17.4894505 C58.7999461,15.6059377 58.4335111,13.5721794 57.768815,12.3636828 M65.8836458,26.2363533 C64.0386882,29.5548197 60.5703384,32.1155261 56.1454228,32.6446517 L73.6277808,59.1836735 L63.0054268,59.1836735 L46.8503304,34.2276734 L20.4435759,34.2276734 L20.4435759,59.1836735 L11.3700488,59.1836735 L11.3700488,0 L48.8422881,0 C57.5472497,0 62.7838614,2.7893409 65.51295,6.9352465 C67.061777,9.42191888 67.9480383,12.5139283 67.9480383,16.7382229 C67.9480383,20.6576715 67.2109075,23.9739604 65.8836458,26.2363533" id="Fill-1" fill="#00D2FF"></path>
                    <g id="Group-5" transform="translate(0.143245, 25.510204)">
                        <mask id="mask-6" fill="white">
                            <use xlink:href="#path-5"></use>
                        </mask>
                        <g id="Clip-4"></g>
                        <polygon id="Fill-3" fill="#00D2FF" mask="url(#mask-6)" points="3.87671238 8.92184108 30.4760722 8.92184108 30.4760722 0.33168693 -0.0010400325 0.33168693"></polygon>
                    </g>
                    <g id="Group-8" transform="translate(34.844276, 40.816327)">
                        <mask id="mask-8" fill="white">
                            <use xlink:href="#path-7"></use>
                        </mask>
                        <g id="Clip-7"></g>
                        <path d="M32.9328829,58.7649805 C15.4132479,58.7649805 6.35432509,54.7690331 2.49490238,47.86637 C1.15911329,45.6102547 0.415102355,42.7790925 0.19425761,40.1619988 L9.99290307,40.1619988 C10.0679474,41.3981401 10.5868253,43.2135258 11.4037365,44.3762122 C14.0774588,48.5904255 20.7585483,50.7688884 33.2309161,50.7688884 C48.4477622,50.7688884 53.1991404,47.1381169 53.1991404,42.1221957 C53.1991404,36.6739398 49.0438286,34.7116442 35.7545497,33.1124258 C33.1558717,32.8228036 27.8856156,32.2393617 24.9160042,31.8762846 C7.76515851,29.9160877 1.15911329,25.3366985 1.15911329,16.3269286 C1.15911329,7.31715878 9.62196966,0.0493197279 30.111216,0.122222712 C47.2620618,0.122222712 55.5019293,4.99178608 59.5114407,11.7496382 C60.5491966,13.6384788 61.2181632,15.9638515 61.5140522,17.6344261 L51.5653181,17.6344261 C51.3444734,16.6186496 50.8984956,15.3111521 50.0815845,14.219822 C47.1870175,10.2952309 41.3957393,8.11466927 30.111216,8.11466927 C15.5611924,8.11466927 10.7347699,10.8031191 10.7347699,15.5273194 C10.7347699,20.3984296 15.1152147,22.2851715 29.5172938,23.9578448 C32.5619495,24.320922 38.203139,24.9022652 40.801817,25.2653423 C56.3188404,27.0093718 62.6289966,31.8049284 62.6289966,41.1064192 C62.6289966,52.1519395 53.868107,58.7649805 32.9328829,58.7649805" id="Fill-6" fill="#00D2FF" mask="url(#mask-8)"></path>
                    </g>
                </g>
            </g>
        </g>
    </g>
</svg>