<?xml version="1.0" encoding="UTF-8"?>
<svg width="110px" height="72px" viewBox="0 0 110 72" version="1.1" xmlns="http://www.w3.org/2000/svg" xmlns:xlink="http://www.w3.org/1999/xlink">
    <!-- Generator: sketchtool 64 (101010) - https://sketch.com -->
    <title>23412288-FB62-4D78-9DAF-67D7BA6D3EE5</title>
    <desc>Created with sketchtool.</desc>
    <g id="Page-1" stroke="none" stroke-width="1" fill="none" fill-rule="evenodd">
        <g id="About" transform="translate(-1133.000000, -4328.000000)">
            <g id="Group-4" transform="translate(1134.000000, 4329.000000)">
                <g id="Group-2">
                    <circle id="Oval" stroke="#141C42" cx="54" cy="35" r="35"></circle>
                    <polyline id="Path-2" stroke="#141C42" points="100 30 107.507211 37.5072109 100 45.0144219"></polyline>
                    <polyline id="Path-2-Copy" stroke="#141C42" transform="translate(3.753605, 37.507211) rotate(-180.000000) translate(-3.753605, -37.507211) " points="0 30 7.50721094 37.5072109 0 45.0144219"></polyline>
                    <path d="M39.64,41 C41.464,41 42.696,40.472 43.496,39.512 C44.264,38.584 44.616,37.256 44.616,34.488 C44.616,31.912 44.312,30.568 43.512,29.656 C42.776,28.792 41.304,28.36 39.496,28.36 L34.376,28.36 L34.376,41 L39.64,41 Z M39.208,39.304 L36.216,39.304 L36.216,30.072 L39.224,30.072 C40.392,30.072 41.368,30.296 41.944,30.856 C42.488,31.4 42.728,32.68 42.728,34.504 C42.728,36.456 42.52,37.832 41.96,38.456 C41.416,39.048 40.424,39.304 39.208,39.304 Z M48.6345,41 L48.6345,36.376 C48.6345,34.696 49.8185,33.704 51.2745,33.704 C52.0905,33.704 52.6985,33.784 53.2425,33.96 L53.2425,32.184 C52.8745,32.088 52.3945,32.008 51.5945,32.008 C50.1865,32.008 48.8425,32.712 48.6025,33.704 L48.6025,32.2 L46.8905,32.2 L46.8905,41 L48.6345,41 Z M57.613,41.096 C59.549,41.096 60.541,40.568 61.069,39.88 C61.053,40.472 61.181,41 61.261,41 L62.861,41 C62.749,40.792 62.685,39.848 62.685,39.176 L62.6855926,38.4038519 C62.6867778,37.8124444 62.6903333,37.1333333 62.701,36.76 C62.717,36.088 62.685,34.824 62.653,34.392 C62.541,32.984 61.277,32.008 58.717,32.008 C57.053,32.008 55.949,32.44 55.261,33.32 C54.877,33.752 54.621,34.52 54.621,35.16 L56.269,35.16 C56.269,34.696 56.397,34.312 56.749,33.992 C57.149,33.624 57.773,33.464 58.749,33.464 C60.221,33.464 60.925,33.896 61.005,34.744 C61.037,35.048 61.037,35.496 61.037,35.72 C60.125,35.624 59.309,35.592 58.541,35.608 C55.437,35.672 54.237,36.904 54.189,38.328 C54.173,38.488 54.189,38.696 54.189,38.808 C54.237,40.248 55.501,41.096 57.613,41.096 Z M58.077,39.752 C57.213,39.752 56.541,39.544 56.221,39.24 C55.981,39.016 55.917,38.744 55.917,38.392 C55.917,37.96 56.125,37.592 56.509,37.368 C57.133,37 58.045,36.888 59.117,36.872 C59.773,36.856 60.413,36.904 61.085,36.984 C61.085,37.144 61.069,37.512 61.021,37.864 C60.925,38.568 60.525,39.048 60.157,39.272 C59.517,39.64 58.893,39.752 58.077,39.752 Z M69.1675,43.688 C72.7035,43.688 74.0315,42.808 74.0315,41.192 C74.0315,39.704 72.9275,38.856 69.2635,38.904 C66.9595,38.904 66.4155,38.728 66.4155,38.248 C66.4155,37.944 66.6075,37.736 66.8635,37.704 C67.2315,37.912 68.1435,38.2 69.0715,38.2 C71.1515,38.2 72.7995,37.432 73.0715,35.592 C73.1035,35.336 73.1035,35.144 73.0875,34.952 C73.0395,34.36 72.8155,33.832 72.6715,33.672 C72.9275,33.448 73.9515,33.432 74.2395,33.432 L74.2395,32.136 C73.5675,32.088 72.4155,32.28 71.9515,32.712 C71.4875,32.376 70.5595,31.96 68.9915,31.96 C66.3995,31.96 65.0715,33.336 65.0075,34.76 C65.0075,34.968 64.9915,35.256 65.0075,35.432 C65.0235,36.184 65.4395,36.984 65.9835,37.288 C65.3915,37.432 64.9595,37.992 64.9595,38.584 C64.9595,39.16 65.4715,39.8 66.0315,39.848 C65.5355,40.04 64.5435,40.52 64.5435,41.576 C64.5435,42.968 65.7755,43.688 69.1675,43.688 Z M69.0235,36.904 C67.4075,36.904 66.7195,36.216 66.6715,35.432 C66.6555,35.272 66.6555,35.112 66.6715,34.904 C66.7195,34.152 67.5355,33.4 69.0395,33.4 C70.6235,33.4 71.2635,34.008 71.3915,34.872 C71.4235,35.08 71.4235,35.24 71.3915,35.416 C71.2475,36.184 70.6875,36.904 69.0235,36.904 Z M69.1035,42.376 C66.7675,42.376 66.0955,41.864 66.0955,41.224 C66.0955,40.664 66.7035,40.296 67.3915,40.2 C67.6315,40.216 68.4635,40.232 69.4075,40.248 C71.8235,40.296 72.3355,40.552 72.3355,41.224 C72.3355,41.912 71.4395,42.376 69.1035,42.376 Z" id="Drag" fill="#141C42" fill-rule="nonzero"></path>
                </g>
            </g>
        </g>
    </g>
</svg>