<svg width="42px" height="39px" viewBox="0 0 42 39" version="1.1" xmlns="http://www.w3.org/2000/svg" xmlns:xlink="http://www.w3.org/1999/xlink">
    <defs>
        <polygon id="path-1" points="0.000367132867 0.514027815 41.3575175 0.514027815 41.3575175 38.7878788 0.000367132867 38.7878788"></polygon>
    </defs>
    <g id="Page-1" stroke="none" stroke-width="1" fill="none" fill-rule="evenodd">
        <g id="About" transform="translate(-545.000000, -4423.000000)">
            <g id="Group-8" transform="translate(545.000000, 4422.000000)">
                <g id="Group-3" transform="translate(0.000000, 0.697697)">
                    <mask id="mask-2" fill="white">
                        <use xlink:href="#path-1"></use>
                    </mask>
                    <g id="Clip-2"></g>
                    <path d="M41.3260664,14.9784242 C41.3260664,14.9166061 41.3126049,14.8244848 41.2881294,14.7699394 C41.224493,14.5420606 41.082535,14.3335758 40.8720455,14.1881212 L34.9514161,10.1117576 L34.9514161,5.74206061 C34.9514161,5.16266667 34.4765909,4.69236364 33.8916259,4.69236364 L27.0813112,4.69236364 L21.285507,0.702060606 C20.9232692,0.452363636 20.4423252,0.451151515 20.0800874,0.699636364 L14.2463462,4.69236364 L7.4654021,4.69236364 C6.88043706,4.69236364 6.40683566,5.16266667 6.40683566,5.74206061 L6.40683566,10.0596364 L0.458059441,14.1323636 C0.164353147,14.3335758 0.00648601399,14.6535758 0.00159090909,14.9808485 C0.00159090909,14.9869091 0.000367132867,14.9929697 0.000367132867,14.9990303 L0.0309615385,37.7396364 C0.0321853147,38.0184242 0.143548951,38.2850909 0.343024476,38.4814545 C0.541276224,38.6778182 0.810506993,38.7881212 1.09075175,38.7881212 L1.09197552,38.7881212 L40.300542,38.7335758 C40.8842832,38.7335758 41.3578846,38.2632727 41.3578846,37.6838788 L41.3260664,14.9784242 Z M34.9514161,12.6669091 L38.3351573,14.9966061 L34.9514161,17.3275152 L34.9514161,12.6669091 Z M20.6797378,2.84024242 L23.3708217,4.69236364 L17.9739685,4.69236364 L20.6797378,2.84024242 Z M8.52519231,6.79054545 L32.8330594,6.79054545 L32.8330594,18.785697 L24.6716958,24.4050909 L21.3442483,21.8487273 C21.3393531,21.8450909 21.334458,21.8426667 21.3295629,21.8390303 C20.957535,21.5626667 20.4313112,21.5529697 20.0458217,21.8487273 L16.6938986,24.4244848 L8.52519231,18.8317576 L8.52519231,6.79054545 Z M6.40683566,12.6111515 L6.40683566,17.3820606 L2.92152098,14.9966061 L6.40683566,12.6111515 Z M2.12117133,17.0002424 L14.9377797,25.7735758 L2.14687063,35.6002424 L2.12117133,17.0002424 Z M4.19057692,36.6850909 L20.6944231,24.0050909 L37.1407517,36.6402424 L4.19057692,36.6850909 Z M26.4253671,25.7529697 L39.2101573,16.9493333 L39.2358566,35.5953939 L26.4253671,25.7529697 Z" id="Fill-1" fill="#24D6DE" mask="url(#mask-2)"></path>
                </g>
                <path d="M27.8494755,11.6849697 L13.508042,11.6849697 C12.9243007,11.6849697 12.4494755,12.1552727 12.4494755,12.7334545 C12.4494755,13.3128485 12.9243007,13.7831515 13.508042,13.7831515 L27.8494755,13.7831515 C28.4344406,13.7831515 28.908042,13.3128485 28.908042,12.7334545 C28.908042,12.1552727 28.4344406,11.6849697 27.8494755,11.6849697" id="Fill-4" fill="#24D6DE"></path>
                <path d="M27.8494755,17.14 L13.508042,17.14 C12.9243007,17.14 12.4494755,17.6090909 12.4494755,18.1884848 C12.4494755,18.7678788 12.9243007,19.2381818 13.508042,19.2381818 L27.8494755,19.2381818 C28.4344406,19.2381818 28.908042,18.7678788 28.908042,18.1884848 C28.908042,17.6090909 28.4344406,17.14 27.8494755,17.14" id="Fill-6" fill="#24D6DE"></path>
            </g>
        </g>
    </g>
</svg>