<svg width="39px" height="40px" viewBox="0 0 39 40" version="1.1" xmlns="http://www.w3.org/2000/svg" xmlns:xlink="http://www.w3.org/1999/xlink">
    <defs>
        <polygon id="path-1" points="0 0 31.4992 0 31.4992 40 0 40"></polygon>
    </defs>
    <g id="Page-1" stroke="none" stroke-width="1" fill="none" fill-rule="evenodd">
        <g id="About" transform="translate(-1326.000000, -4422.000000)">
            <g id="Group-6-Copy" transform="translate(1326.000000, 4422.000000)">
                <g id="Group-3">
                    <mask id="mask-2" fill="white">
                        <use xlink:href="#path-1"></use>
                    </mask>
                    <g id="Clip-2"></g>
                    <path d="M30.5334857,6.12342857 C31.0672,6.12342857 31.4992,5.69142857 31.4992,5.15771429 L31.4992,2.112 C31.4992,0.947428571 30.5529143,0 29.3883429,0 L8.9632,0 C8.7072,0 8.46148571,0.101714286 8.28091429,0.282285714 L0.2832,8.28114286 C0.101485714,8.46171429 -0.000228571429,8.70742857 -0.000228571429,8.96342857 L-0.000228571429,37.888 C-0.000228571429,39.0525714 0.9472,40 2.11177143,40 L29.3883429,40 C30.5517714,40 31.4992,39.0525714 31.4992,37.888 L31.4992,23.1474286 C31.4992,22.6148571 31.0672,22.1817143 30.5334857,22.1817143 C30.0009143,22.1817143 29.5677714,22.6148571 29.5677714,23.1474286 L29.5677714,37.888 C29.5677714,37.9874286 29.4877714,38.0697143 29.3883429,38.0697143 L2.11177143,38.0697143 C2.01234286,38.0697143 1.9312,37.9874286 1.9312,37.888 L1.9312,9.92914286 L7.81805714,9.92914286 C8.98262857,9.92914286 9.92891429,8.98171429 9.92891429,7.81828571 L9.92891429,1.93028571 L29.3883429,1.93028571 C29.4877714,1.93028571 29.5677714,2.01257143 29.5677714,2.112 L29.5677714,5.15771429 C29.5677714,5.69142857 30.0009143,6.12342857 30.5334857,6.12342857 L30.5334857,6.12342857 Z M7.99862857,7.81828571 C7.99862857,7.91771429 7.91748571,7.99771429 7.81805714,7.99771429 L3.29691429,7.99771429 L7.99862857,3.29714286 L7.99862857,7.81828571 Z" id="Fill-1" fill="#24D6DE" mask="url(#mask-2)"></path>
                </g>
                <path d="M37.9653714,7.84342857 L36.8293714,6.70742857 C35.5562286,5.43428571 33.4830857,5.43428571 32.2099429,6.70742857 L23.1916571,15.7245714 L7.55051429,15.7245714 C7.01794286,15.7245714 6.58594286,16.1577143 6.58594286,16.6902857 C6.58594286,17.224 7.01794286,17.656 7.55051429,17.656 L21.2613714,17.656 L15.4499429,23.4662857 L7.55051429,23.4662857 C7.01794286,23.4662857 6.58594286,23.8994286 6.58594286,24.432 C6.58594286,24.9657143 7.01794286,25.3977143 7.55051429,25.3977143 L13.5196571,25.3977143 L13.5036571,25.4137143 C13.3859429,25.5314286 13.3002286,25.6765714 13.2556571,25.8377143 L11.7642286,31.208 L7.55051429,31.208 C7.01794286,31.208 6.58594286,31.6411429 6.58594286,32.1737143 C6.58594286,32.7074286 7.01794286,33.1394286 7.55051429,33.1394286 L12.4990857,33.1394286 C12.4990857,33.1394286 12.7105143,33.1154286 12.7413714,33.1074286 C12.7470857,33.1062857 18.8350857,31.4171429 18.8350857,31.4171429 C18.9950857,31.3725714 19.1413714,31.2868571 19.2590857,31.1691429 L37.9653714,12.4628571 C39.2385143,11.1897143 39.2385143,9.11657143 37.9653714,7.84342857 L37.9653714,7.84342857 Z M13.8853714,30.7874286 L14.6739429,27.9485714 L16.7230857,29.9988571 L13.8853714,30.7874286 Z M18.5768,29.1211429 L15.5516571,26.096 L30.9928,10.6548571 L34.0179429,13.68 L18.5768,29.1211429 Z M36.5996571,11.0982857 L35.3836571,12.3142857 L32.3585143,9.28914286 L33.5745143,8.07314286 C34.0956571,7.552 34.9436571,7.552 35.4636571,8.07314286 L36.5996571,9.20914286 C37.1208,9.73028571 37.1208,10.5771429 36.5996571,11.0982857 L36.5996571,11.0982857 Z" id="Fill-4" fill="#24D6DE"></path>
            </g>
        </g>
    </g>
</svg>