<?xml version="1.0" encoding="UTF-8"?>
<svg width="25px" height="25px" viewBox="0 0 25 25" version="1.1" xmlns="http://www.w3.org/2000/svg" xmlns:xlink="http://www.w3.org/1999/xlink">
    <!-- Generator: sketchtool 64 (101010) - https://sketch.com -->
    <title>FE99AB0C-7C41-4A23-8C62-69DA9FD31F73</title>
    <desc>Created with sketchtool.</desc>
    <defs>
        <polygon id="path-1" points="0.000714285714 0.000119047619 24.24 0.000119047619 24.24 24.2403571 0.000714285714 24.2403571"></polygon>
    </defs>
    <g id="Page-1" stroke="none" stroke-width="1" fill="none" fill-rule="evenodd">
        <g id="Homepage-V2" transform="translate(-1143.000000, -4762.000000)">
            <g id="Group-5" transform="translate(1093.000000, 4762.000000)">
                <g id="Group-3" transform="translate(50.000000, 0.000000)">
                    <mask id="mask-2" fill="white">
                        <use xlink:href="#path-1"></use>
                    </mask>
                    <g id="Clip-2"></g>
                    <path d="M20.5292857,20.5322619 L17.0733333,20.5322619 L17.0733333,14.6453571 C17.0733333,13.029881 16.4590476,12.1275 15.1828571,12.1275 C13.7935714,12.1275 13.067381,13.0667857 13.067381,14.6453571 L13.067381,20.5322619 L9.73761905,20.5322619 L9.73761905,9.31559524 L13.067381,9.31559524 L13.067381,10.8275 C13.067381,10.8275 14.0685714,8.97392857 16.4471429,8.97392857 C18.8257143,8.97392857 20.5292857,10.4263095 20.5292857,13.4310714 L20.5292857,20.5322619 Z M5.765,7.8477381 C4.63047619,7.8477381 3.71142857,6.91916667 3.71142857,5.77630952 C3.71142857,4.63464286 4.63047619,3.7072619 5.765,3.7072619 C6.89952381,3.7072619 7.81738095,4.63464286 7.81738095,5.77630952 C7.81738095,6.91916667 6.89952381,7.8477381 5.765,7.8477381 L5.765,7.8477381 Z M4.0447619,20.5322619 L7.51738095,20.5322619 L7.51738095,9.31559524 L4.0447619,9.31559524 L4.0447619,20.5322619 Z M21.1138095,0.000119047619 L3.12571429,0.000119047619 C1.39952381,0.000119047619 0.000714285714,1.39892857 0.000714285714,3.12511905 L0.000714285714,21.1144048 C0.000714285714,22.8405952 1.39952381,24.2405952 3.12571429,24.2405952 L21.1138095,24.2405952 C22.84,24.2405952 24.24,22.8405952 24.24,21.1144048 L24.24,3.12511905 C24.24,1.39892857 22.84,0.000119047619 21.1138095,0.000119047619 L21.1138095,0.000119047619 Z" id="Fill-1" fill="#FFFFFF" mask="url(#mask-2)"></path>
                </g>
            </g>
        </g>
    </g>
</svg>