<?xml version="1.0" encoding="UTF-8"?>
<svg width="1440px" height="215px" viewBox="0 0 1440 215" version="1.1" xmlns="http://www.w3.org/2000/svg" xmlns:xlink="http://www.w3.org/1999/xlink">
    <!-- Generator: sketchtool 64 (101010) - https://sketch.com -->
    <title>1C2159A8-3BF5-4750-9964-36C4791C1631@3x</title>
    <desc>Created with sketchtool.</desc>
    <g id="Page-1" stroke="none" stroke-width="1" fill="none" fill-rule="evenodd" opacity="0.1">
        <g id="About" transform="translate(0.000000, -1449.000000)" fill="#FFFFFF">
            <path d="M78.0135849,1449 C107.323774,1449 126.716981,1457.38809 139.058113,1473.50205 C150.517736,1486.74641 156.02717,1507.93737 156.02717,1537.73717 C156.02717,1569.08214 149.856604,1590.05236 137.735849,1604.40041 C126.496604,1620.0729 106.221887,1628.01951 78.0135849,1628.01951 C50.0256604,1628.01951 30.4120755,1620.29363 18.5116981,1604.40041 C6.17056604,1590.05236 0,1568.19918 0,1538.17864 C0,1509.48255 5.2890566,1488.07084 17.189434,1474.38501 C29.530566,1458.49179 48.7033962,1449 78.0135849,1449 Z M78.2339623,1605.50411 C96.0845283,1605.50411 107.103396,1600.20637 115.257358,1592.25975 C125.615094,1582.10575 130.243019,1562.45996 130.243019,1538.39938 C130.243019,1515.00103 125.615094,1495.35524 116.8,1486.30493 C107.764528,1477.25462 97.1864151,1471.95688 78.0135849,1471.95688 C58.6203774,1471.95688 48.2626415,1477.25462 39.6679245,1486.30493 C30.8528302,1495.57598 26.2249057,1515.22177 26.2249057,1538.62012 C26.2249057,1563.12218 31.5139623,1582.32649 42.5328302,1593.14271 C50.4664151,1601.08932 61.2649057,1605.50411 78.2339623,1605.50411 Z M291.338868,1605.50411 C291.338868,1623.38398 291.338868,1625.59138 291.779623,1625.81211 L268.860377,1625.81211 L268.199245,1610.36037 C260.045283,1623.60472 242.415094,1627.79877 225.446038,1627.79877 C197.458113,1627.79877 178.946415,1613.00924 178.946415,1586.96201 C178.946415,1510.80698 178.946415,1504.84702 178.50566,1504.40554 L202.526792,1504.40554 C202.967547,1504.40554 202.967547,1505.2885 202.967547,1580.1191 C202.967547,1599.98563 215.088302,1607.49076 235.363019,1607.49076 C254.095094,1607.49076 267.538113,1597.55749 267.538113,1581.88501 L267.538113,1504.40554 L291.338868,1504.40554 L291.338868,1605.50411 Z M407.918491,1504.1848 L407.918491,1528.68686 C400.42566,1526.25873 392.051321,1525.15503 380.812075,1525.15503 C360.757736,1525.15503 344.449811,1538.84086 344.449811,1562.01848 L344.449811,1625.81211 L320.428679,1625.81211 L320.428679,1504.40554 L344.009057,1504.40554 L344.009057,1525.15503 C347.314717,1511.4692 365.826415,1501.75667 385.219623,1501.75667 C396.238491,1501.75667 402.849811,1502.86037 407.918491,1504.1848 Z M624.108679,1575.92505 C624.108679,1608.15298 602.511698,1628.01951 556.012075,1628.01951 C511.936604,1628.01951 491.661887,1614.33368 484.169057,1591.81828 C482.406038,1586.29979 481.304151,1578.79466 481.304151,1574.15914 L507.529057,1574.15914 C507.529057,1576.80801 508.851321,1583.43018 510.173585,1586.52053 C516.344151,1600.4271 531.109434,1606.16632 555.791698,1606.16632 C586.644528,1606.16632 597.663396,1595.3501 597.663396,1580.1191 C597.663396,1562.23922 586.203774,1555.17556 559.097358,1549.65708 C552.926792,1548.33265 542.569057,1546.346 533.313208,1544.58008 C498.93434,1537.95791 482.846792,1524.05133 482.846792,1496.23819 C482.846792,1469.74949 502.901132,1449.22074 550.502642,1449.43971 C591.052075,1449.66222 610.445283,1463.12731 618.819623,1485.20123 C620.803019,1490.49897 621.243774,1497.56263 621.243774,1500.87372 L595.018868,1500.87372 C595.018868,1498.66632 594.798491,1494.0308 593.476226,1490.94045 C587.30566,1477.47536 576.727547,1471.5154 549.621132,1471.5154 C519.209057,1471.5154 509.292075,1481.22793 509.292075,1494.69302 C509.292075,1509.92402 518.547925,1516.98768 548.519245,1522.7269 C556.45283,1524.27207 566.590189,1526.25873 573.421887,1527.58316 C605.376604,1533.32238 624.108679,1547.67043 624.108679,1575.92505 Z M716.226415,1524.93429 L679.203019,1524.93429 L679.203019,1588.72793 C679.203019,1602.6345 684.712453,1606.16632 698.155472,1606.16632 C703.003774,1606.16632 711.378113,1605.50411 714.904151,1604.84189 L714.904151,1624.92916 C709.835472,1626.25359 699.698113,1627.13655 689.340377,1627.13655 C669.94717,1627.13655 655.181887,1619.85216 655.181887,1596.01232 L655.181887,1524.93429 L634.686792,1524.93429 L634.686792,1504.40554 L654.741132,1504.40554 C655.622642,1502.63963 655.843019,1478.57906 655.843019,1478.57906 L678.762264,1478.35832 L678.762264,1504.40554 L716.226415,1504.40554 L716.226415,1524.93429 Z M822.889057,1504.1848 L822.889057,1528.68686 C815.396226,1526.25873 807.021887,1525.15503 795.782642,1525.15503 C775.728302,1525.15503 759.420377,1538.84086 759.420377,1562.01848 L759.420377,1625.81211 L735.399245,1625.81211 L735.399245,1504.40554 L758.979623,1504.40554 L758.979623,1525.15503 C762.285283,1511.4692 780.796981,1501.75667 800.190189,1501.75667 C811.209057,1501.75667 817.820377,1502.86037 822.889057,1504.1848 Z M953.132075,1625.81211 L931.09434,1625.81211 C929.992453,1625.81211 928.229434,1618.52772 928.449811,1610.36037 C921.177358,1619.85216 907.513962,1627.13655 880.848302,1627.13655 C851.758491,1627.13655 834.348679,1615.43737 833.687547,1595.57084 C833.687547,1594.02567 833.46717,1591.15606 833.687547,1588.94867 C834.348679,1569.30287 850.876981,1552.30595 893.630189,1551.423 C904.208302,1551.20226 915.447547,1551.64374 928.009057,1552.96817 C928.009057,1549.87782 928.009057,1543.69713 927.568302,1539.50308 C926.466415,1527.8039 916.769811,1521.84394 896.495094,1521.84394 C883.052075,1521.84394 874.457358,1524.05133 868.947925,1529.12834 C864.099623,1533.54312 862.336604,1538.84086 862.336604,1545.2423 L839.637736,1545.2423 C839.637736,1536.41273 843.163774,1525.81725 848.45283,1519.85729 C857.929057,1507.71663 873.135094,1501.75667 896.05434,1501.75667 C931.314717,1501.75667 948.724528,1515.22177 950.26717,1534.64682 C950.707925,1540.60678 951.148679,1558.04517 950.928302,1567.31622 C950.707925,1575.04209 950.707925,1592.25975 950.707925,1600.64784 C950.707925,1609.91889 951.589434,1622.94251 953.132075,1625.81211 Z M928.670189,1570.40657 C919.41434,1569.30287 910.599245,1568.64066 901.563774,1568.8614 C886.798491,1569.08214 874.236981,1570.62731 865.642264,1575.70431 C860.353208,1578.79466 857.488302,1583.87166 857.488302,1589.83162 C857.488302,1594.68789 858.369811,1598.44045 861.675472,1601.5308 C866.083019,1605.72485 875.338868,1608.59446 887.239245,1608.59446 C898.478491,1608.59446 907.073208,1607.04928 915.888302,1601.97228 C920.956981,1598.88193 926.466415,1592.25975 927.788679,1582.54723 C928.449811,1577.69097 928.670189,1572.61396 928.670189,1570.40657 Z M1046.3517,1524.93429 L1009.3283,1524.93429 L1009.3283,1588.72793 C1009.3283,1602.6345 1014.83774,1606.16632 1028.28075,1606.16632 C1033.12906,1606.16632 1041.5034,1605.50411 1045.02943,1604.84189 L1045.02943,1624.92916 C1039.96075,1626.25359 1029.8234,1627.13655 1019.46566,1627.13655 C1000.07245,1627.13655 985.30717,1619.85216 985.30717,1596.01232 L985.30717,1524.93429 L964.812075,1524.93429 L964.812075,1504.40554 L984.866415,1504.40554 C985.747925,1502.63963 985.968302,1478.57906 985.968302,1478.57906 L1008.88755,1478.35832 L1008.88755,1504.40554 L1046.3517,1504.40554 L1046.3517,1524.93429 Z M1183.64679,1587.84497 C1183.64679,1596.01232 1177.03547,1607.7115 1165.79623,1616.32033 C1156.09962,1623.60472 1141.77509,1628.01951 1122.60226,1628.01951 C1100.34415,1628.01951 1082.71396,1621.39733 1070.37283,1605.72485 C1062.21887,1595.3501 1058.25208,1582.32649 1058.25208,1564.44661 C1058.25208,1547.44969 1062.65962,1534.42608 1070.59321,1524.05133 C1081.3917,1510.3655 1098.80151,1501.53593 1121.94113,1501.53593 C1146.84377,1501.53593 1163.59245,1510.3655 1173.50943,1523.8306 C1182.76528,1535.52977 1186.29132,1555.3963 1184.30792,1573.71766 L1081.61208,1573.71766 C1082.05283,1583.43018 1085.57887,1590.93532 1091.96981,1597.33676 C1098.80151,1603.95893 1109.82038,1607.93224 1122.82264,1607.93224 C1135.16377,1607.93224 1144.86038,1605.28337 1150.81057,1601.5308 C1158.08302,1596.89528 1160.50717,1590.71458 1160.50717,1587.84497 L1183.64679,1587.84497 Z M1160.72755,1555.3963 C1160.72755,1546.12526 1158.52377,1538.39938 1152.79396,1532.66016 C1146.40302,1526.25873 1136.70642,1522.06468 1121.94113,1522.06468 C1107.83698,1522.06468 1098.36075,1526.47947 1091.74943,1532.66016 C1085.57887,1538.17864 1082.49358,1545.90452 1081.83245,1555.3963 L1160.72755,1555.3963 Z M1255.71019,1501.09446 C1277.30717,1501.09446 1290.08906,1506.83368 1296.48,1511.4692 C1302.87094,1505.50924 1318.73811,1502.86037 1327.99396,1503.52259 L1327.99396,1521.40246 C1324.02717,1521.40246 1309.92302,1521.6232 1306.39698,1524.71355 C1308.38038,1526.92094 1311.46566,1534.20534 1312.12679,1542.37269 C1312.34717,1545.02156 1312.34717,1547.67043 1311.90642,1551.20226 C1308.16,1576.58727 1285.46113,1587.18275 1256.81208,1587.18275 C1244.03019,1587.18275 1231.46868,1583.20945 1226.4,1580.33984 C1222.87396,1580.78131 1220.22943,1583.65092 1220.22943,1587.84497 C1220.22943,1594.46715 1227.72226,1596.89528 1259.4566,1596.89528 C1309.92302,1596.23306 1325.12906,1607.93224 1325.12906,1628.46099 C1325.12906,1650.75565 1306.83774,1662.8963 1258.13434,1662.8963 C1211.41434,1662.8963 1194.44528,1652.96304 1194.44528,1633.75873 C1194.44528,1619.18994 1208.10868,1612.56776 1214.94038,1609.91889 C1207.22717,1609.25667 1200.17509,1600.4271 1200.17509,1592.48049 C1200.17509,1584.31314 1206.12528,1576.58727 1214.27925,1574.60062 C1206.78642,1570.40657 1201.0566,1559.36961 1200.83623,1548.99487 C1200.61585,1546.56674 1200.83623,1542.59343 1200.83623,1539.72382 C1201.71774,1520.07803 1220.00906,1501.09446 1255.71019,1501.09446 Z M1256.37132,1520.96099 C1235.65585,1520.96099 1224.4166,1531.33573 1223.75547,1541.71047 C1223.53509,1544.58008 1223.53509,1546.78747 1223.75547,1548.99487 C1224.4166,1559.81109 1233.89283,1569.30287 1256.15094,1569.30287 C1279.07019,1569.30287 1286.7834,1559.36961 1288.76679,1548.77413 C1289.20755,1546.346 1289.20755,1544.1386 1288.76679,1541.26899 C1287.00377,1529.34908 1278.18868,1520.96099 1256.37132,1520.96099 Z M1257.25283,1644.79569 C1289.42792,1644.79569 1301.76906,1638.39425 1301.76906,1628.90246 C1301.76906,1619.63142 1294.71698,1616.09959 1261.44,1615.43737 C1248.43774,1615.21663 1236.97811,1614.99589 1233.67245,1614.77515 C1224.19623,1616.09959 1215.82189,1621.17659 1215.82189,1628.90246 C1215.82189,1637.73203 1225.07774,1644.79569 1257.25283,1644.79569 Z M1460,1504.40554 L1389.25887,1664 L1364.13585,1664 L1381.10491,1625.81211 L1326.6717,1504.40554 L1352.45585,1504.40554 C1352.45585,1504.40554 1393.88679,1601.31006 1393.88679,1602.19302 C1393.88679,1601.31006 1435.31774,1504.40554 1435.31774,1504.40554 L1460,1504.40554 Z" id="Our-Strategy"></path>
        </g>
    </g>
</svg>